<svg version="1.0" xmlns="http://www.w3.org/2000/svg"
 width="32" height="32" viewBox="0 0 400.000000 400.000000"
 preserveAspectRatio="xMidYMid meet">

<g transform="translate(0.000000,400.000000) scale(0.100000,-0.100000)"
fill="#000000" stroke="none">
<path fill="#currentColor" d="M0 2000 l0 -2000 2000 0 2000 0 0 2000 0 2000 -2000 0 -2000 0 0
-2000z m1332 1533 l3 -198 133 -3 132 -3 0 201 0 200 400 0 400 0 0 -200 0
-201 133 3 132 3 3 198 2 197 530 0 530 0 0 -1730 0 -1730 -530 0 -530 0 -2
198 -3 197 -132 3 -133 3 0 -201 0 -200 -400 0 -400 0 0 200 0 201 -132 -3
-133 -3 -3 -197 -2 -198 -530 0 -530 0 0 1730 0 1730 530 0 530 0 2 -197z"/>
<path fill="#bf0707" d="M1270 2965 l0 -235 -235 0 -235 0 0 -200 0 -200 235 0 235 0 0 -330
0 -330 -235 0 -235 0 0 -200 0 -200 235 0 235 0 0 -235 0 -235 200 0 200 0 0
235 0 235 330 0 330 0 0 -235 0 -235 200 0 200 0 0 235 0 235 235 0 235 0 0
200 0 200 -235 0 -235 0 0 330 0 330 235 0 235 0 0 200 0 200 -235 0 -235 0 0
235 0 235 -200 0 -200 0 0 -235 0 -235 -330 0 -330 0 0 235 0 235 -200 0 -200
0 0 -235z m1060 -965 l0 -330 -330 0 -330 0 0 330 0 330 330 0 330 0 0 -330z"/>
</g>
</svg>
