<svg role="img" viewBox="0 0 32 32" xmlns="http://www.w3.org/2000/svg" id="Metasploit--Streamline-Simple-Icons" height="32" width="32">
  <desc>
    Metasploit Streamline Icon: https://streamlinehq.com
  </desc>
  <title>Metasploit</title>
  <path d="M15.137333333333332 0h1.824q5.586666666666667 0.29066666666666663 10.858666666666666 2.1546666666666665 0.28933333333333333 0.10266666666666666 0.288 0.412 -0.019999999999999997 5.3773333333333335 -0.0026666666666666666 16.136 0 1.08 -0.124 1.564c-0.28933333333333333 1.1266666666666665 -1.0133333333333332 2.1799999999999997 -1.768 3.1q-0.424 0.5173333333333333 -1.3653333333333333 1.3946666666666667 -3.94 3.6666666666666665 -8.013333333333332 6.792 -0.244 0.18666666666666668 -0.688 0.44666666666666666h-0.22666666666666668q-0.836 -0.5599999999999999 -1.2599999999999998 -0.8973333333333333 -5.322666666666667 -4.245333333333333 -7.256 -5.945333333333332 -1.7973333333333334 -1.58 -2.892 -3.4813333333333336c-0.492 -0.8533333333333333 -0.6213333333333333 -1.7159999999999997 -0.62 -2.7986666666666666q0.013333333333333332 -8.064 0.0026666666666666666 -16.290666666666667c0 -0.244 0.12 -0.352 0.348 -0.43333333333333335Q9.526666666666666 0.30266666666666664 15.136 0ZM9.965333333333334 10.485333333333333q0 -0.12533333333333332 0.092 -0.04133333333333333l3.7293333333333334 3.3546666666666667a0.49866666666666665 0.496 21.2 0 1 0.16266666666666665 0.368l-0.008 5.777333333333333a0.24266666666666664 0.24266666666666664 0 0 0 0.244 0.24533333333333332l3.365333333333333 -0.023999999999999997a0.14666666666666667 0.14666666666666667 89.8 0 0 0.144 -0.14666666666666667q-0.009333333333333332 -2.9346666666666668 0.013333333333333332 -5.948 0.0026666666666666666 -0.23066666666666663 0.19466666666666665 -0.3866666666666666 1.8626666666666667 -1.5266666666666666 3.928 -3.190666666666666 0.09066666666666667 -0.07333333333333333 0.09066666666666667 0.042666666666666665v14.508q0 0.12266666666666666 0.08399999999999999 0.032 1.0586666666666666 -1.1533333333333333 2.1706666666666665 -2.4506666666666668 0.9466666666666665 -1.1066666666666665 1.3119999999999998 -2.493333333333333 0.3466666666666667 -1.3186666666666667 0.34933333333333333 -2.6626666666666665 0.009333333333333332 -6.338666666666666 0.011999999999999999 -13.024000000000001a0.18133333333333335 0.18133333333333335 0 0 0 -0.18266666666666667 -0.18133333333333335q-1.5333333333333332 0.005333333333333333 -3.2319999999999998 0c-0.3826666666666666 -0.0026666666666666666 -0.588 -0.02933333333333333 -0.8253333333333333 0.19866666666666666Q18.88 7.089333333333333 15.975999999999999 9.866666666666667a0.06133333333333333 0.06133333333333333 0 0 1 -0.08266666666666667 0Q13.042666666666666 7.249333333333333 10.358666666666666 4.699999999999999c-0.312 -0.296 -0.6866666666666666 -0.508 -1.1239999999999999 -0.4973333333333333q-1.4533333333333334 0.034666666666666665 -3.1066666666666665 0.006666666666666666 -0.24533333333333332 -0.005333333333333333 -0.24533333333333332 0.24 -0.004 6.053333333333333 0.006666666666666666 12.042666666666666 0.0026666666666666666 0.7146666666666667 0.047999999999999994 1.369333333333333c0.10133333333333333 1.4573333333333331 0.26666666666666666 2.8346666666666662 1.0706666666666667 4.028 0.7653333333333332 1.136 1.7719999999999998 2.2079999999999997 2.8346666666666662 3.206666666666666q0.030666666666666665 0.02933333333333333 0.072 0.034666666666666665 0.05333333333333333 0.008 0.05333333333333333 -0.04533333333333334z" fill="#385de3" stroke-width="1.3333"></path>
</svg>