<svg version="1.0" xmlns="http://www.w3.org/2000/svg"
 width="1680.000000pt" height="900.000000pt" viewBox="0 0 1680.000000 900.000000"
 preserveAspectRatio="xMidYMid meet">

<g transform="translate(0.000000,900.000000) scale(0.100000,-0.100000)"
fill="#000000" stroke="none">
<path d="M8020 8860 c-1890 -49 -3096 -532 -5560 -2228 -676 -466 -1108 -780
-1310 -952 -284 -243 -523 -519 -627 -725 -14 -27 -28 -52 -32 -55 -7 -5 -17
-37 -58 -185 -37 -132 -36 -303 1 -430 47 -156 112 -248 229 -325 130 -85 293
-131 757 -214 168 -31 321 -60 340 -65 19 -5 67 -15 105 -21 141 -23 425 -92
677 -166 407 -118 770 -262 1295 -512 382 -183 647 -325 1283 -690 206 -119
471 -264 588 -324 195 -100 211 -109 187 -118 -15 -6 -29 -10 -32 -10 -3 0
-18 -9 -33 -20 l-28 -20 -53 27 c-53 28 -55 28 -274 31 l-222 3 -93 -208 c-51
-114 -96 -212 -100 -216 -4 -4 -51 89 -105 208 l-99 217 -225 -6 c-125 -3
-239 -6 -256 -6 -16 1 -133 3 -260 6 -163 4 -243 2 -273 -7 -50 -14 -134 -85
-152 -129 -7 -16 -15 -30 -19 -30 -3 0 -30 38 -59 85 l-54 85 -211 0 c-201 0
-215 -1 -262 -24 -108 -50 -169 -166 -147 -276 17 -79 58 -139 119 -175 l52
-30 1 -291 0 -291 -41 -33 c-57 -45 -89 -117 -89 -199 0 -81 25 -136 86 -190
67 -59 107 -66 354 -66 204 1 218 2 268 24 55 25 118 88 128 128 4 13 9 23 13
23 3 0 32 -41 63 -90 l57 -91 463 3 463 3 59 29 c40 19 68 42 88 71 l30 43 57
-57 c86 -87 76 -86 611 -86 l455 0 52 24 c29 13 68 40 86 60 l34 37 37 -39
c68 -71 104 -80 331 -85 147 -3 218 0 266 10 48 10 74 11 90 4 15 -6 144 -11
334 -11 365 0 385 4 458 85 87 96 91 231 10 338 -17 23 -21 33 -11 36 7 3 31
10 53 17 79 23 141 63 212 134 123 123 184 284 170 451 -4 39 -9 78 -13 88 -6
14 8 16 137 16 169 0 537 15 729 30 118 9 214 19 443 46 l59 7 -35 -69 c-227
-452 -16 -1018 439 -1174 233 -81 511 -16 699 161 l52 49 14 -43 c17 -54 100
-138 154 -156 55 -18 408 -27 504 -12 40 6 85 18 99 25 67 35 131 127 132 189
0 15 4 27 8 27 8 0 56 -80 119 -198 l28 -54 170 5 c94 3 185 10 204 16 47 14
102 54 126 91 24 36 28 36 68 6 169 -127 515 -176 768 -111 74 20 211 77 302
128 l67 38 0 148 c0 139 1 149 21 167 12 10 32 42 45 69 58 122 8 273 -108
333 l-48 25 27 31 c56 66 63 96 63 282 0 186 -8 228 -56 291 -13 18 -46 45
-72 60 -40 24 -58 28 -122 28 -51 0 -85 -6 -106 -17 -29 -16 -35 -16 -90 0
-84 23 -325 23 -414 -1 -203 -54 -374 -195 -471 -388 l-36 -73 -18 59 c-35
122 -101 211 -210 284 -149 99 -232 113 -660 109 -317 -3 -332 -4 -371 -25
-53 -28 -97 -79 -119 -136 l-17 -46 -63 54 c-35 29 -73 59 -85 65 -12 7 -18
15 -14 19 5 5 56 27 114 51 198 82 531 255 930 482 637 364 823 465 1200 653
347 174 486 238 719 329 267 106 650 231 684 224 7 -1 21 3 33 9 46 26 371 98
914 204 376 73 555 121 717 195 131 59 270 161 347 252 85 102 115 317 67 487
-91 327 -368 659 -926 1112 -173 141 -852 641 -1221 900 -1179 828 -2242 1401
-3274 1766 -552 196 -1132 328 -1720 393 -176 19 -746 26 -1210 14z m1028 -30
c702 -50 1404 -215 2178 -512 154 -59 165 -65 173 -93 4 -16 7 -31 6 -33 -2
-2 -76 26 -166 61 -720 284 -1376 446 -2104 519 -159 16 -1055 15 -1364 -2
-663 -35 -1221 -131 -1791 -307 -140 -44 -444 -153 -551 -198 -43 -18 -80 -31
-82 -29 -2 3 -2 15 1 29 4 21 25 33 161 86 637 252 1267 395 2001 455 351 28
1273 42 1538 24z m-53 -80 c721 -47 1448 -218 2234 -526 91 -36 171 -70 178
-76 7 -6 13 -23 13 -38 l0 -28 -212 85 c-451 179 -955 332 -1383 418 -410 82
-688 114 -1070 122 -325 6 -1030 -11 -1283 -32 -705 -58 -1312 -199 -1937
-450 -103 -41 -190 -75 -192 -75 -1 0 -3 10 -3 23 0 21 19 30 170 90 664 263
1336 412 2105 468 332 24 1132 35 1380 19z m-15 -80 c727 -54 1473 -234 2230
-538 184 -74 215 -90 218 -109 2 -13 1 -23 -1 -23 -3 0 -79 30 -169 66 -871
354 -1674 538 -2443 560 -222 7 -1024 -10 -1235 -26 -794 -60 -1423 -208
-2117 -499 -68 -28 -125 -51 -128 -51 -3 0 -5 13 -5 29 0 27 6 32 78 61 722
301 1345 449 2147 511 310 23 1202 35 1425 19z m-5 -80 c727 -48 1443 -220
2233 -538 l217 -87 -2 -108 c-1 -127 -30 -277 -80 -421 -35 -103 -118 -275
-154 -320 l-20 -25 -82 36 c-684 295 -1296 446 -2057 505 -225 18 -1365 17
-1580 0 -631 -52 -1094 -175 -1713 -456 -82 -37 -154 -65 -162 -63 -19 8 -121
214 -155 316 -52 155 -90 372 -90 519 l0 62 58 26 c31 14 140 58 242 99 633
251 1233 383 1975 436 334 23 1128 34 1370 19z m-3659 -336 c-3 -9 -6 -21 -6
-28 0 -8 -20 -21 -45 -30 -25 -10 -102 -44 -172 -76 -71 -32 -129 -57 -131
-55 -11 10 14 55 36 65 97 46 308 140 316 140 4 0 5 -7 2 -16z m6304 -97 c134
-59 167 -78 178 -100 7 -15 12 -32 10 -37 -2 -6 -356 143 -364 154 -1 0 -4 13
-8 29 -4 19 -3 27 6 26 7 0 87 -33 178 -72z m-6317 -8 c-4 -15 -28 -31 -72
-51 -36 -17 -117 -54 -178 -83 -94 -44 -113 -51 -113 -36 0 9 6 24 13 33 13
18 338 168 349 162 3 -2 4 -14 1 -25z m6337 -97 c142 -63 178 -83 188 -105 28
-59 12 -56 -183 33 -185 84 -190 87 -193 118 -2 18 0 32 5 32 4 0 87 -35 183
-78z m-6714 14 c-5 -21 -40 -42 -198 -123 -106 -54 -198 -99 -205 -101 -16 -4
-5 33 15 51 22 19 385 207 390 202 3 -2 2 -15 -2 -29z m372 -6 c-3 -28 -13
-35 -182 -115 -98 -47 -181 -85 -182 -85 -2 0 -4 14 -4 31 0 33 -24 19 320
181 48 23 52 22 48 -12z m6766 -109 c208 -100 226 -114 226 -164 0 -18 -433
199 -442 221 -10 25 -9 42 1 42 5 0 102 -45 215 -99z m-311 -54 c86 -41 97
-49 97 -72 l0 -25 -62 31 c-35 18 -121 58 -193 90 -112 50 -130 62 -133 83
l-3 25 98 -43 c54 -24 142 -64 196 -89z m-6860 45 c-32 -24 -396 -212 -401
-208 -2 3 0 17 5 32 8 23 42 45 209 131 186 96 199 101 202 80 3 -13 -4 -27
-15 -35z m410 -64 c15 -256 73 -466 190 -691 27 -53 48 -99 46 -100 -2 -2 -88
-47 -191 -100 l-187 -96 -34 57 c-134 222 -207 488 -207 751 0 80 4 112 14
120 14 12 346 171 357 171 3 0 9 -51 12 -112z m6289 11 c62 -28 147 -69 189
-90 l76 -38 6 -58 c15 -147 -31 -378 -108 -541 -52 -110 -150 -262 -169 -262
-11 0 -364 166 -376 177 -2 2 4 16 13 31 10 15 40 71 68 126 92 180 153 405
166 609 3 53 9 97 14 97 4 0 58 -23 121 -51z m488 -45 c106 -53 201 -105 211
-115 18 -18 27 -69 12 -69 -5 1 -102 49 -218 108 -199 101 -210 109 -216 140
-5 22 -3 32 6 32 7 0 99 -43 205 -96z m-7184 34 c-3 -13 -6 -28 -6 -34 0 -7
-39 -32 -87 -57 -49 -25 -142 -75 -207 -111 -66 -36 -121 -64 -124 -61 -3 2
-1 19 4 37 7 23 23 40 57 60 74 43 351 188 361 188 4 0 6 -10 2 -22z m-415
-41 c-12 -30 -1 -23 -243 -160 -176 -98 -188 -104 -188 -81 0 17 12 31 43 51
74 47 390 223 394 219 2 -2 -1 -15 -6 -29z m7624 -115 c184 -94 210 -110 217
-135 3 -16 3 -27 -1 -25 -4 2 -102 53 -218 113 -167 87 -212 115 -216 133 -2
12 -1 22 2 22 3 -1 100 -49 216 -108z m354 26 c75 -39 153 -82 173 -95 35 -22
73 -75 66 -92 -2 -7 -347 175 -364 192 -8 8 -23 67 -17 67 3 0 67 -32 142 -72z
m-7569 -65 c0 -241 67 -493 188 -713 26 -47 48 -88 50 -91 2 -5 -120 -76 -351
-203 l-38 -21 -20 25 c-40 51 -129 218 -164 308 -48 126 -73 233 -86 383 -17
185 -16 188 89 248 112 64 315 171 325 171 4 0 7 -48 7 -107z m-430 59 c0 -31
-20 -46 -204 -151 -98 -56 -189 -109 -202 -118 -23 -15 -24 -15 -24 15 0 16 6
34 13 40 19 16 400 232 409 232 4 0 8 -8 8 -18z m7660 -111 l205 -108 -1 -154
c-2 -137 -5 -168 -33 -274 -43 -169 -172 -421 -226 -441 -8 -3 -71 26 -142 64
-70 38 -166 89 -213 112 -47 23 -86 43 -88 45 -1 1 23 40 54 86 77 114 148
264 179 379 28 107 50 294 41 358 -4 30 -2 42 7 42 6 -1 104 -50 217 -109z
m467 -55 c67 -37 126 -73 131 -79 11 -14 26 -77 19 -77 -19 0 -383 213 -389
227 -3 10 -7 29 -7 41 -1 27 -29 40 246 -112z m-8164 6 c-10 -7 -99 -62 -198
-120 -99 -59 -186 -111 -192 -115 -10 -6 -13 2 -13 31 l0 40 208 121 207 121
3 -33 c3 -22 -2 -36 -15 -45z m4282 48 c304 -10 454 -20 670 -46 509 -60 993
-185 1505 -389 257 -102 284 -115 272 -127 -7 -7 -53 8 -144 45 -695 290
-1314 433 -2063 477 -224 13 -1189 13 -1408 0 -641 -39 -1141 -169 -1787 -464
-106 -49 -146 -63 -151 -54 -5 7 -5 16 0 21 13 13 289 136 441 197 445 177
828 272 1280 316 300 29 908 40 1385 24z m-4685 -34 c0 -28 -29 -60 -82 -92
-35 -21 -127 -77 -205 -126 -78 -48 -144 -88 -147 -88 -3 0 -6 11 -6 24 0 19
25 38 148 114 81 49 176 108 212 130 62 39 80 47 80 38z m8783 -37 c211 -121
377 -222 385 -232 5 -7 12 -27 15 -45 6 -31 6 -32 -16 -20 -41 23 -371 220
-407 243 -24 15 -40 35 -47 59 -6 20 -9 36 -6 36 2 0 37 -19 76 -41z m-3758
12 c634 -52 1136 -160 1675 -360 309 -115 454 -181 399 -181 -6 0 -98 34 -203
77 -688 275 -1296 406 -2051 443 -269 13 -1022 13 -1275 0 -657 -34 -1133
-154 -1789 -451 -84 -39 -161 -67 -169 -64 -23 9 -10 17 158 93 641 290 1149
417 1810 452 217 11 1279 5 1445 -9z m3518 -93 c131 -74 181 -107 188 -126 5
-14 7 -27 5 -29 -3 -3 -91 44 -197 105 -160 90 -194 114 -200 137 -10 35 -15
37 204 -87z m-3823 62 c708 -26 1200 -110 1790 -306 202 -68 570 -213 570
-225 0 -23 -33 -16 -130 26 -155 68 -426 167 -611 225 -389 120 -763 193
-1189 230 -364 32 -1478 29 -1820 -5 -533 -53 -1054 -205 -1594 -467 -71 -34
-82 -36 -95 -23 -8 8 -13 16 -10 18 13 10 251 117 382 171 456 190 863 293
1326 337 285 26 926 35 1381 19z m-4306 -115 c15 -265 84 -484 224 -710 l50
-80 -197 -117 c-108 -65 -198 -118 -201 -118 -3 0 -24 30 -47 68 -144 236
-233 512 -236 737 l-2 100 195 118 c107 64 197 117 201 117 3 0 9 -52 13 -115z
m-438 32 c-4 -15 -66 -59 -208 -147 -111 -69 -206 -126 -210 -128 -4 -2 -8 10
-8 26 0 27 9 36 81 82 189 121 344 211 347 200 2 -6 1 -21 -2 -33z m5144 19
c600 -52 1111 -172 1660 -389 255 -100 264 -105 251 -121 -10 -12 -34 -5 -144
41 -658 274 -1243 410 -1937 453 -212 13 -1132 13 -1360 0 -629 -36 -1123
-164 -1739 -450 -136 -63 -156 -70 -169 -56 -13 13 -9 17 36 40 78 40 304 138
427 186 459 179 854 269 1320 300 257 17 282 17 890 15 428 -2 629 -7 765 -19z
m3454 -105 l168 -96 -6 -105 c-9 -166 -53 -313 -146 -496 -56 -108 -144 -254
-155 -254 -10 0 -355 202 -355 209 0 3 18 31 41 61 54 72 143 256 169 350 32
117 50 245 50 358 l0 103 33 -17 c17 -9 108 -59 201 -113z m394 -27 c107 -64
202 -124 213 -135 18 -18 28 -84 11 -77 -5 2 -103 60 -219 130 -206 125 -211
129 -221 169 -9 36 -8 40 6 34 10 -3 104 -58 210 -121z m-4049 102 c3 -2 58
-7 121 -10 201 -12 526 -55 750 -101 564 -115 1185 -352 1865 -712 99 -53 194
-106 212 -119 17 -13 36 -24 40 -24 32 0 660 -383 1012 -616 91 -60 172 -113
180 -119 153 -98 655 -448 996 -695 275 -199 273 -197 578 -357 360 -188 477
-262 477 -303 0 -27 -62 -56 -179 -86 -84 -22 -137 -27 -431 -39 -184 -8 -353
-17 -375 -20 -265 -33 -408 -60 -595 -112 -52 -14 -104 -27 -115 -28 -11 -1
-31 -6 -45 -13 -73 -33 -415 -133 -436 -128 -17 5 -24 2 -24 -8 0 -8 -65 -37
-182 -79 -263 -95 -633 -234 -683 -257 -80 -37 -384 -150 -404 -150 -13 0 -29
-6 -35 -14 -6 -8 -94 -47 -196 -86 -102 -40 -235 -92 -297 -116 -184 -71 -565
-207 -778 -277 -901 -296 -1601 -407 -2310 -368 -734 41 -1254 163 -2210 521
-165 62 -318 120 -340 130 -22 9 -92 37 -155 60 -63 23 -164 62 -225 85 -155
61 -560 212 -750 280 -88 32 -165 64 -172 72 -6 8 -16 12 -21 9 -12 -7 -455
143 -460 156 -2 4 -13 8 -24 8 -27 0 -432 132 -436 142 -2 4 -14 8 -26 8 -12
0 -64 13 -116 29 -120 38 -245 65 -385 85 -109 15 -341 39 -380 39 -23 0 -297
14 -425 22 -247 16 -370 59 -370 130 0 26 70 93 147 142 41 25 184 97 316 158
368 170 394 185 662 370 1448 999 2544 1670 3185 1949 47 21 103 46 125 56 78
36 292 118 425 163 450 152 779 208 1325 227 219 7 1150 4 1164 -4z m-4949
-90 c0 -33 -4 -37 -205 -164 l-205 -131 0 42 0 42 198 122 c108 68 200 123
205 123 4 0 7 -15 7 -34z m9198 -248 c24 -15 32 -27 32 -50 0 -21 -4 -27 -12
-22 -7 4 -71 44 -143 89 -71 45 -163 101 -202 125 -64 37 -73 46 -73 71 0 29
1 29 183 -82 100 -62 197 -121 215 -131z m-9646 172 c-2 -16 -7 -30 -11 -30
-3 0 -105 -65 -226 -145 -157 -103 -221 -140 -223 -129 -2 8 2 24 10 35 11 18
434 298 449 299 3 0 4 -13 1 -30z m9914 -116 c210 -133 214 -136 214 -170 0
-19 -3 -34 -7 -34 -4 0 -68 40 -142 89 -75 48 -169 109 -208 134 -50 32 -73
53 -73 66 0 11 -3 26 -6 35 -3 9 -3 16 0 16 4 0 104 -61 222 -136z m-9441
-153 c33 -175 122 -399 223 -564 l42 -67 -53 -34 c-177 -113 -329 -206 -336
-206 -12 0 -99 154 -145 257 -76 171 -147 435 -158 583 -3 51 -17 40 257 213
l140 88 7 -92 c4 -51 15 -131 23 -178z m8995 111 c236 -148 222 -127 196 -291
-32 -201 -108 -397 -220 -565 -86 -130 -79 -127 -178 -65 -45 29 -135 84 -198
122 -63 38 -117 71 -119 73 -2 2 26 52 61 111 36 60 79 135 95 168 79 157 143
387 143 514 0 34 3 61 8 61 4 0 99 -58 212 -128z m-9482 27 c-7 -4 -112 -73
-233 -153 -212 -140 -220 -144 -223 -119 -2 15 4 33 15 44 10 9 115 80 233
157 l215 140 3 -30 c2 -19 -2 -35 -10 -39z m9932 -97 l195 -127 3 -44 3 -44
-29 19 c-16 10 -108 71 -205 134 l-177 115 0 38 c0 20 3 37 8 36 4 0 95 -58
202 -127z m-9910 24 c0 -33 -5 -37 -233 -190 -129 -86 -237 -156 -240 -156 -4
0 -7 18 -7 40 l0 41 208 135 c114 75 216 142 227 149 33 23 45 18 45 -19z
m2015 -24 c0 -7 -85 -57 -188 -109 -152 -78 -190 -94 -197 -82 -5 7 -6 17 -2
20 21 19 359 189 372 186 8 -1 15 -8 15 -15z m5842 -88 c118 -56 173 -88 167
-94 -7 -7 -62 14 -165 64 -85 40 -171 81 -191 89 -44 18 -53 43 -12 33 14 -4
105 -45 201 -92z m2062 -38 c145 -95 191 -130 187 -142 -3 -9 -6 -22 -6 -29 0
-7 -89 46 -197 119 -171 114 -198 136 -201 161 -3 21 0 26 11 22 7 -3 101 -62
206 -131z m-7872 88 c1 -5 -83 -53 -189 -107 -145 -76 -193 -96 -199 -86 -4 7
-7 14 -6 15 12 12 374 193 381 191 6 -2 11 -7 13 -13z m5714 -50 c210 -97 243
-114 232 -125 -6 -6 -60 15 -144 54 -74 35 -160 76 -192 90 -33 15 -56 31 -52
37 3 5 8 10 10 10 3 0 68 -30 146 -66z m-7751 -6 c0 -57 50 -279 89 -396 48
-141 101 -260 166 -367 44 -71 47 -80 31 -89 -10 -6 -88 -57 -174 -113 -86
-57 -162 -103 -169 -103 -19 0 -131 128 -195 224 -115 173 -191 356 -222 538
l-7 37 232 155 c128 85 236 153 241 150 4 -3 8 -19 8 -36z m10365 -102 c204
-139 210 -144 213 -179 2 -21 1 -37 -3 -37 -3 0 -102 66 -220 146 -210 142
-215 146 -215 180 0 19 3 34 8 34 4 -1 102 -65 217 -144z m-10887 78 c-7 -7
-102 -74 -211 -148 -198 -135 -198 -135 -195 -103 3 30 19 43 208 170 183 123
205 136 208 116 2 -12 -2 -27 -10 -35z m2599 41 c3 -10 -346 -197 -378 -203
-9 -2 -19 4 -22 12 -5 11 39 39 176 110 170 89 216 106 224 81z m5695 -66 c95
-44 177 -84 183 -90 5 -6 5 -13 -1 -19 -7 -7 -58 12 -160 61 -82 39 -168 80
-192 90 -40 17 -49 39 -17 39 8 0 92 -36 187 -81z m-39 -35 c100 -48 185 -89
189 -93 4 -3 3 -12 -1 -20 -7 -11 -48 5 -203 79 -106 50 -195 94 -197 95 -5 6
10 25 20 25 5 0 91 -39 192 -86z m2166 -44 c208 -138 195 -116 160 -277 -52
-242 -164 -465 -298 -597 l-50 -49 -162 104 c-89 57 -166 107 -172 110 -5 4
21 49 57 102 81 116 166 291 201 412 15 50 34 143 43 208 12 81 21 116 29 113
6 -3 93 -59 192 -126z m-7790 106 c10 -11 -23 -32 -181 -115 -170 -90 -194
-100 -207 -86 -8 8 -12 17 -8 21 8 8 370 193 378 194 4 0 12 -6 18 -14z
m-2646 -116 c-10 -9 -102 -74 -205 -144 l-188 -126 0 32 c1 31 10 39 203 171
196 133 202 137 205 111 2 -17 -3 -33 -15 -44z m10856 -47 c265 -181 263 -179
255 -216 -3 -18 -8 -33 -9 -35 -1 -2 -100 64 -218 145 l-216 148 0 39 c-1 31
2 37 15 32 9 -4 87 -54 173 -113z m-8726 72 c4 -9 -4 -20 -21 -30 -285 -165
-358 -202 -371 -189 -8 7 -13 15 -10 17 3 3 63 37 334 189 58 32 61 33 68 13z
m6662 -86 c224 -118 238 -127 229 -140 -3 -6 -33 5 -72 27 -37 20 -136 72
-219 116 -139 72 -176 98 -140 98 6 0 98 -45 202 -101z m-11 -40 c116 -61 213
-113 215 -115 1 -1 0 -8 -4 -14 -4 -7 -36 5 -93 36 -48 26 -147 78 -220 116
-72 39 -130 74 -126 79 3 5 8 9 11 9 4 0 101 -50 217 -111z m-6625 87 c9 -11
-24 -34 -179 -121 -120 -68 -196 -105 -207 -101 -9 4 -13 10 -9 14 4 4 91 55
194 114 103 58 188 107 188 107 1 1 7 -5 13 -13z m6585 -112 c111 -59 207
-112 215 -120 13 -11 12 -14 -4 -20 -12 -5 -36 2 -69 20 -28 15 -114 61 -191
101 -163 86 -181 98 -171 113 4 7 10 12 13 12 3 0 97 -48 207 -106z m-8722 51
c3 -24 -1 -40 -11 -49 -9 -8 -99 -71 -200 -141 -193 -134 -205 -138 -199 -70
3 27 23 44 197 163 107 72 198 132 202 132 4 0 9 -16 11 -35z m2178 5 c0 -4
-24 -19 -52 -35 -29 -15 -115 -64 -190 -107 -130 -75 -158 -84 -158 -54 0 7
84 60 187 118 139 79 191 104 200 96 7 -6 13 -14 13 -18z m8780 -185 c83 -58
116 -87 118 -104 7 -48 -15 -41 -124 37 -60 43 -155 111 -211 151 -80 55 -103
77 -103 95 0 46 -9 51 320 -179z m-2197 48 c75 -41 137 -78 137 -83 0 -24 -38
-12 -136 42 -60 33 -153 82 -207 109 -81 41 -97 52 -87 64 14 16 51 -1 293
-132z m-6554 103 c14 -17 21 -13 -164 -116 -71 -40 -147 -84 -168 -97 -22 -14
-40 -23 -41 -21 -1 2 -7 10 -14 20 -11 14 5 26 145 106 240 136 224 129 242
108z m-2649 -60 c0 -21 -31 -46 -182 -153 -100 -70 -186 -129 -190 -131 -4 -2
-8 10 -8 26 0 28 14 40 182 156 100 69 186 126 190 126 4 0 8 -11 8 -24z
m11296 -126 c235 -166 221 -141 165 -286 -49 -128 -126 -246 -229 -355 -110
-115 -216 -203 -237 -196 -21 9 -285 186 -285 192 0 3 24 34 54 69 154 181
256 405 297 649 7 43 17 76 21 75 5 -2 101 -68 214 -148z m465 23 c179 -128
179 -128 179 -166 0 -21 -4 -37 -8 -35 -4 2 -88 61 -185 131 -170 123 -177
130 -177 163 0 19 3 34 6 34 3 0 86 -57 185 -127z m-11295 36 c43 -212 169
-457 333 -646 l70 -81 -155 -102 -154 -103 -37 29 c-80 60 -234 219 -293 302
-109 153 -201 375 -169 407 28 28 374 264 383 262 5 -2 15 -32 22 -68z m1667
17 c4 -10 -54 -49 -189 -131 -174 -104 -224 -125 -224 -97 0 10 379 241 396
242 7 0 14 -6 17 -14z m7532 -96 c154 -89 196 -120 166 -120 -18 0 -361 201
-361 211 0 19 31 5 195 -91z m-9670 20 c-6 -9 -352 -250 -360 -250 -3 0 -5 12
-5 28 1 24 22 42 177 150 165 114 178 121 185 101 4 -11 6 -24 3 -29z m2172
34 c5 -16 -385 -247 -404 -239 -14 5 -15 8 -2 19 24 24 383 236 393 233 6 -2
11 -8 13 -13z m7436 -66 c78 -45 159 -91 179 -102 34 -19 51 -46 29 -46 -5 0
-58 29 -117 64 -60 35 -142 82 -181 105 -67 38 -90 61 -63 61 6 0 75 -37 153
-82z m2221 -108 c116 -84 118 -85 112 -119 -3 -18 -7 -35 -10 -38 -2 -2 -85
55 -185 127 -185 135 -194 145 -175 194 6 16 6 16 258 -164z m-2322 119 c86
-49 291 -170 297 -175 3 -3 -2 -11 -10 -19 -12 -12 -37 -1 -194 91 -199 117
-200 118 -191 133 11 17 18 14 98 -30z m-7303 17 c10 -11 -25 -36 -190 -136
-179 -108 -203 -120 -217 -107 -13 13 -10 18 29 43 91 58 354 214 360 214 4 0
12 -6 18 -14z m7338 -102 c232 -137 236 -139 221 -152 -11 -8 -48 9 -163 77
-83 48 -172 100 -199 115 -36 21 -45 31 -35 37 8 5 17 9 21 9 4 0 74 -39 155
-86z m-7296 60 c12 -14 12 -18 -1 -26 -8 -5 -100 -60 -204 -124 -170 -103
-191 -113 -205 -99 -10 9 -12 18 -6 24 13 12 388 240 396 241 4 0 13 -7 20
-16z m-2232 -66 c1 -11 -59 -59 -176 -142 -166 -116 -179 -123 -186 -103 -20
54 -10 66 173 193 174 122 175 122 181 96 4 -15 7 -35 8 -44z m11731 -96 c158
-115 175 -131 178 -160 2 -21 -1 -32 -10 -32 -10 0 -331 230 -361 259 -9 9 1
61 12 61 3 0 85 -58 181 -128z m-12150 49 c0 -27 -16 -41 -172 -151 -95 -67
-178 -125 -186 -127 -10 -4 -13 2 -10 26 3 28 21 44 178 156 96 68 178 124
183 124 4 1 7 -12 7 -28z m12571 -109 c166 -122 174 -130 177 -165 2 -20 1
-37 -2 -37 -3 0 -87 59 -186 131 -173 125 -180 131 -180 165 0 18 4 34 8 34 5
0 87 -58 183 -128z m-2114 22 c200 -123 233 -145 233 -155 0 -20 -34 -3 -214
110 -172 106 -218 141 -187 141 6 0 81 -43 168 -96z m-10007 9 c33 -106 103
-242 171 -334 64 -88 219 -246 282 -289 20 -14 37 -27 37 -30 -1 -3 -83 -60
-183 -126 -131 -88 -186 -120 -197 -114 -9 5 -51 39 -95 77 -146 126 -269 301
-344 489 -63 157 -73 135 124 274 94 65 173 119 177 120 3 0 16 -30 28 -67z
m1665 50 c0 -7 -85 -66 -190 -132 -168 -106 -192 -118 -205 -105 -13 13 -13
16 0 24 8 5 94 58 190 119 164 104 205 122 205 94z m10054 -150 c73 -53 136
-103 138 -111 13 -32 -73 -236 -148 -352 -45 -70 -255 -284 -304 -311 l-30
-16 -189 130 -189 131 59 50 c213 179 361 388 419 589 l17 58 46 -35 c26 -20
107 -79 181 -133z m-1704 36 c108 -67 194 -126 192 -133 -3 -6 -8 -10 -13 -9
-5 1 -92 54 -194 117 -102 64 -189 117 -194 119 -9 3 0 27 9 27 3 0 93 -55
200 -121z m-8322 77 c4 -9 -56 -51 -181 -130 -103 -65 -191 -118 -197 -119 -5
-1 -11 5 -13 13 -2 10 59 54 185 133 103 64 190 117 194 117 4 0 9 -6 12 -14z
m8285 -106 c97 -61 184 -114 192 -120 13 -8 13 -11 -1 -25 -15 -15 -31 -7
-205 101 -104 65 -191 119 -193 121 -7 5 9 33 19 33 6 0 90 -50 188 -110z
m-10418 76 c0 -20 -32 -47 -187 -155 -166 -116 -188 -129 -191 -110 -2 12 2
27 10 35 20 20 352 254 361 254 4 0 7 -11 7 -24z m2168 -18 c2 -9 -21 -29 -60
-53 -35 -21 -119 -74 -187 -118 -112 -71 -125 -77 -139 -63 -9 9 -14 17 -11
20 23 21 376 235 384 233 6 -2 11 -10 13 -19z m10437 -146 c114 -83 120 -90
123 -126 3 -33 1 -38 -13 -32 -9 3 -93 60 -186 126 -169 121 -176 128 -163
177 7 26 -1 31 239 -145z m-2346 119 c286 -179 321 -204 311 -216 -9 -10 -49
11 -193 101 -100 63 -186 115 -191 117 -12 4 2 27 16 27 6 0 32 -13 57 -29z
m-8046 -31 c-21 -19 -361 -230 -370 -230 -6 0 -16 6 -22 14 -13 15 -1 24 259
187 97 61 106 65 123 51 9 -9 14 -19 10 -22z m-2199 -12 c14 -55 9 -60 -182
-194 -170 -119 -188 -129 -194 -110 -19 63 -18 64 175 198 100 71 185 128 188
128 4 0 9 -10 13 -22z m12527 -155 c177 -125 180 -128 173 -158 -3 -16 -8 -32
-10 -34 -1 -2 -84 56 -184 129 -127 93 -180 137 -176 147 3 8 6 21 6 29 0 8 3
14 6 14 3 0 87 -57 185 -127z m-12951 58 c0 -27 -17 -43 -167 -155 l-168 -125
-3 31 c-2 18 3 37 11 46 21 21 310 230 320 231 4 1 7 -12 7 -28z m11300 -86
c89 -57 165 -107 168 -109 3 -3 -2 -8 -11 -11 -15 -7 -347 201 -347 217 0 20
38 1 190 -97z m-9205 75 c0 -18 -334 -233 -352 -226 -8 3 -13 11 -11 17 5 16
340 230 353 226 5 -2 10 -10 10 -17z m11249 -94 c259 -194 256 -192 256 -231
0 -19 -2 -35 -5 -35 -3 0 -45 31 -93 68 -48 38 -140 108 -204 157 -110 81
-118 90 -118 121 0 19 3 34 6 34 4 0 75 -51 158 -114z m-12876 32 c28 -92 92
-221 157 -318 49 -74 217 -252 285 -303 19 -14 32 -28 30 -30 -22 -18 -380
-257 -385 -257 -4 0 -36 23 -70 50 -139 110 -278 286 -349 441 -43 94 -81 218
-70 229 23 22 360 259 369 260 6 0 21 -33 33 -72z m10797 -42 c152 -99 185
-126 151 -126 -23 0 -338 209 -331 220 3 6 9 10 13 10 4 0 79 -47 167 -104z
m-9137 66 c4 -12 -313 -224 -338 -226 -8 -1 -15 5 -15 13 0 14 324 231 339
227 6 -1 11 -7 14 -14z m10710 -44 c48 -34 128 -93 179 -130 l92 -67 -23 -68
c-66 -194 -175 -353 -353 -514 -108 -98 -106 -97 -156 -62 -23 16 -104 73
-180 127 l-137 97 84 69 c180 149 304 327 375 543 13 37 25 67 28 67 3 0 44
-28 91 -62z m-1608 -53 c151 -99 178 -125 138 -133 -12 -2 -289 168 -322 199
-8 7 9 39 20 39 2 0 76 -47 164 -105z m-9066 37 c-301 -197 -340 -219 -351
-187 -1 6 72 58 164 118 151 97 168 106 182 92 11 -11 13 -18 5 -23z m-2164 3
c0 -17 -12 -32 -44 -54 -24 -17 -98 -73 -165 -126 -67 -52 -124 -95 -126 -95
-3 0 -5 13 -5 29 0 25 18 42 163 150 89 66 165 121 170 121 4 0 7 -11 7 -25z
m11330 -191 c-10 -19 -39 -5 -183 90 -115 77 -145 101 -137 111 9 11 44 -8
168 -89 86 -56 155 -107 152 -112z m1969 109 c64 -47 155 -117 204 -155 79
-63 87 -73 87 -104 0 -19 -4 -34 -9 -34 -6 0 -73 49 -149 109 -77 59 -168 129
-204 154 -61 44 -64 48 -60 81 2 20 7 36 10 36 3 0 57 -39 121 -87z m-11079
46 c0 -4 -73 -54 -162 -112 -137 -90 -163 -103 -175 -92 -7 8 -13 18 -11 22 1
4 72 54 157 109 130 85 158 100 173 90 10 -6 18 -14 18 -17z m-2201 -90 c1
-19 -10 -33 -43 -57 -24 -17 -97 -74 -161 -127 -65 -52 -122 -95 -125 -95 -4
0 -11 19 -14 43 -7 40 -5 44 31 75 21 19 97 78 168 133 121 92 130 97 137 76
3 -12 6 -34 7 -48z m13321 -110 c230 -175 234 -178 225 -217 -3 -18 -11 -32
-16 -32 -6 0 -47 31 -92 68 -45 38 -122 99 -172 137 -119 90 -144 115 -139
131 2 8 6 21 9 30 6 19 0 24 185 -117z m-1692 30 c162 -108 160 -107 139 -115
-19 -7 -310 184 -301 198 10 15 25 8 162 -83z m-12018 38 c0 -30 -11 -43 -133
-144 -73 -61 -183 -159 -245 -218 l-111 -106 -7 36 c-6 33 -3 40 32 76 87 90
437 387 457 388 4 1 7 -14 7 -32z m2079 20 c9 -11 -19 -34 -135 -111 -135 -90
-172 -107 -181 -81 -2 9 282 204 298 205 4 0 12 -6 18 -13z m9902 -88 c160
-109 157 -107 135 -115 -19 -7 -309 183 -300 198 11 17 35 5 165 -83z m-9854
46 c3 -10 -257 -184 -288 -192 -9 -3 -20 0 -23 6 -8 12 273 203 293 199 8 -2
16 -7 18 -13z m9817 -79 c76 -52 140 -97 143 -100 3 -3 -5 -10 -19 -16 -22
-10 -37 -2 -166 86 -112 77 -139 100 -131 111 6 7 17 13 23 13 7 0 74 -42 150
-94z m-11513 -10 c16 -48 41 -110 55 -139 76 -149 208 -316 328 -412 41 -33
75 -63 75 -67 1 -4 -65 -53 -145 -109 -170 -118 -139 -118 -286 1 -92 76 -199
189 -255 271 -38 55 -106 189 -123 244 l-13 39 45 41 c64 58 281 225 286 220
2 -2 17 -42 33 -89z m1745 45 c-3 -4 -68 -50 -146 -101 -128 -85 -142 -92
-157 -78 -14 15 -3 25 127 112 117 78 147 93 162 85 10 -6 16 -13 14 -18z
m11544 -138 c143 -114 184 -153 182 -168 -2 -11 -24 -56 -50 -100 -69 -118
-224 -270 -381 -373 -68 -45 -130 -82 -137 -82 -7 0 -81 48 -164 108 l-151
107 48 39 c79 65 215 207 265 276 55 77 129 222 154 302 14 47 20 55 33 48 9
-5 99 -75 201 -157z m-1835 66 c74 -50 137 -95 140 -100 4 -5 0 -12 -8 -15
-18 -7 -300 183 -292 197 11 17 26 9 160 -82z m2246 -20 c67 -56 154 -133 195
-171 70 -67 74 -73 74 -115 l0 -45 -106 100 c-58 55 -148 136 -199 179 -88 73
-95 80 -95 116 0 20 2 37 5 37 2 0 59 -45 126 -101z m-14168 -11 c-123 -107
-244 -221 -325 -308 -51 -55 -95 -96 -99 -92 -4 4 -10 18 -14 32 -5 23 10 41
127 156 73 71 180 169 238 217 l105 87 3 -30 c3 -24 -4 -36 -35 -62z m2261 79
c16 -11 2 -23 -128 -110 -140 -93 -147 -96 -166 -80 -19 16 -15 20 118 109 75
51 142 93 148 93 5 1 18 -5 28 -12z m10172 -204 c101 -69 184 -129 184 -133 0
-28 -49 -2 -213 112 -165 114 -203 148 -166 148 6 0 93 -57 195 -127z m-12375
68 l9 -40 -141 -138 c-78 -76 -168 -172 -201 -213 -34 -41 -64 -76 -69 -78 -4
-2 -20 15 -35 37 l-27 41 38 46 c83 101 401 402 412 390 3 -2 9 -23 14 -45z
m14070 -22 c46 -40 132 -119 190 -176 106 -105 106 -105 96 -139 l-10 -34
-116 113 c-64 62 -150 141 -191 176 -41 36 -75 71 -74 78 3 44 5 53 13 53 5 0
46 -32 92 -71z m-12390 -3 c-178 -125 -309 -206 -324 -200 -10 3 -17 9 -17 13
0 3 82 61 181 128 154 103 185 121 201 112 18 -10 14 -15 -41 -53z m10654 -73
c154 -107 181 -130 170 -142 -11 -11 -43 8 -198 115 -173 120 -211 154 -171
154 8 0 98 -57 199 -127z m-10559 82 c6 -17 -350 -247 -369 -239 -9 3 -17 9
-17 13 1 12 355 241 369 239 8 -2 16 -7 17 -13z m10510 -110 c99 -69 180 -130
182 -135 2 -5 -7 -12 -21 -15 -20 -5 -58 17 -205 121 -142 100 -179 131 -170
141 6 7 16 13 23 13 7 0 93 -56 191 -125z m-10456 85 c8 -5 12 -11 10 -13 -3
-2 -83 -56 -179 -121 -144 -98 -177 -117 -199 -111 -21 5 -23 8 -11 20 23 23
342 235 354 235 5 0 17 -4 25 -10z m10404 -125 c154 -110 192 -145 156 -145
-14 0 -370 252 -370 262 0 25 54 -5 214 -117z m1897 -42 c57 -54 126 -121 151
-148 l47 -51 -21 -32 -20 -32 -117 119 c-64 65 -145 143 -179 174 l-64 56 12
36 12 35 37 -29 c20 -16 84 -74 142 -128z m-12246 134 c16 -13 10 -19 -76 -79
-261 -180 -259 -178 -280 -165 -10 6 -18 15 -17 19 3 9 338 238 348 238 3 0
14 -6 25 -13z m-1850 -44 c10 -41 80 -177 127 -245 56 -84 183 -215 291 -301
48 -38 84 -74 80 -78 -16 -16 -260 -139 -276 -139 -22 0 -233 96 -339 153 -93
51 -226 146 -271 194 l-28 30 62 79 c73 93 326 347 338 339 5 -2 12 -17 16
-32z m14060 -204 c91 -89 165 -167 165 -174 0 -19 -90 -97 -180 -156 -85 -56
-238 -136 -381 -199 l-97 -42 -123 74 c-67 41 -124 79 -126 85 -2 5 40 38 92
72 202 132 348 277 432 431 21 38 41 70 45 70 4 0 82 -73 173 -161z m-14635
67 c0 -20 -15 -45 -49 -85 -88 -102 -162 -214 -219 -331 -30 -63 -57 -117 -60
-120 -6 -8 -52 53 -52 69 0 47 150 276 284 432 81 94 96 100 96 35z m15060
-61 c94 -101 227 -271 255 -325 14 -27 13 -30 -11 -59 -14 -17 -29 -31 -33
-31 -4 0 -26 34 -50 75 -49 86 -132 199 -217 298 -55 62 -59 70 -56 107 2 23
8 40 12 38 4 -2 49 -48 100 -103z m-1742 -30 c162 -113 191 -141 146 -139 -14
0 -305 198 -353 240 -7 6 12 25 23 22 7 -2 90 -57 184 -123z m-11450 102 c9
-11 -29 -41 -178 -141 -172 -117 -220 -141 -220 -109 0 8 369 263 381 263 3 0
11 -6 17 -13z m11403 -134 c142 -101 176 -130 167 -140 -6 -8 -16 -12 -23 -10
-8 4 -334 236 -355 254 -4 4 20 22 29 23 2 0 84 -57 182 -127z m-11343 92 c-1
-2 -86 -60 -187 -130 -167 -115 -213 -139 -215 -110 0 6 82 67 184 136 151
104 188 125 203 117 10 -5 17 -11 15 -13z m11301 -127 c94 -68 171 -126 171
-130 0 -4 -9 -12 -19 -18 -17 -8 -47 10 -201 121 -164 119 -179 133 -163 145
10 7 23 12 29 9 7 -2 89 -59 183 -127z m-11251 104 c8 -6 -48 -50 -174 -136
-156 -107 -190 -127 -211 -121 -34 8 -35 7 171 149 165 113 187 124 214 108z
m-1951 -42 c11 -29 8 -36 -64 -143 -80 -117 -128 -212 -159 -309 -10 -32 -22
-58 -28 -58 -6 0 -25 9 -43 20 -32 19 -32 20 -19 58 20 57 73 158 123 237 46
71 164 224 173 225 3 0 11 -14 17 -30z m13139 -96 c96 -69 174 -129 174 -134
0 -27 -36 -7 -199 111 -160 117 -195 149 -160 149 6 0 89 -57 185 -126z
m-11126 106 c8 -5 12 -11 9 -14 -3 -3 -86 -61 -184 -130 -159 -109 -182 -122
-203 -113 -12 6 -21 14 -20 18 5 14 352 249 368 249 8 0 22 -4 30 -10z m13067
-199 c35 -47 79 -116 98 -153 l35 -66 -30 -22 c-17 -12 -33 -21 -34 -19 -2 2
-16 29 -31 59 -40 80 -109 185 -177 268 -59 72 -59 72 -47 109 l12 37 56 -63
c31 -35 84 -102 118 -150z m-15019 76 l31 -44 -25 -36 c-48 -72 -114 -214
-135 -295 -22 -80 -24 -83 -48 -77 -51 13 -91 34 -91 49 0 28 52 161 90 231
35 63 136 215 144 215 1 0 17 -20 34 -43z m14911 -103 c64 -87 141 -220 141
-244 0 -14 -57 -57 -64 -48 -1 1 -21 41 -44 88 -23 47 -73 127 -112 178 -38
52 -70 96 -70 99 0 3 10 18 21 35 l22 30 23 -29 c14 -15 51 -64 83 -109z
m-1328 -30 c167 -120 167 -119 143 -132 -16 -8 -42 6 -149 85 -71 52 -138 101
-149 108 -19 14 -14 35 8 35 8 0 74 -43 147 -96z m-12215 61 c2 -5 -62 -54
-141 -108 -130 -88 -177 -110 -179 -84 -1 5 62 53 139 107 128 91 173 112 181
85z m13476 -130 c55 -82 108 -183 108 -207 0 -30 -292 -125 -482 -158 l-128
-21 -120 68 c-110 62 -138 83 -109 83 6 0 88 38 182 84 189 91 328 179 397
251 l45 46 23 -28 c13 -15 50 -68 84 -118z m-1295 24 c90 -66 139 -107 133
-113 -16 -16 -55 4 -191 103 -105 77 -127 97 -117 108 6 8 16 12 22 10 7 -3
75 -51 153 -108z m-13424 42 c40 -32 101 -78 137 -101 67 -43 253 -138 349
-179 l54 -23 -124 -65 -124 -65 -150 21 c-161 22 -363 65 -378 80 -10 10 15
114 46 186 23 56 106 205 114 205 2 0 37 -27 76 -59z m1295 40 c25 -15 -293
-219 -324 -207 -12 4 17 28 97 82 62 42 130 89 152 105 42 31 54 34 75 20z
m12082 -118 c52 -38 106 -76 119 -82 29 -16 13 -36 -21 -28 -26 7 -213 129
-263 171 -29 25 -29 26 -11 41 18 13 22 13 50 -9 17 -12 74 -54 126 -93z
m-12021 88 c11 -7 -11 -26 -85 -74 -135 -88 -250 -145 -265 -130 -9 9 1 18 37
36 27 14 99 59 159 101 111 75 128 83 154 67z m11913 -87 c49 -34 113 -77 143
-94 52 -30 76 -50 58 -50 -14 0 -216 115 -271 154 -51 37 -58 46 -46 59 8 8
10 7 116 -69z m-11854 60 c12 -4 22 -9 22 -13 0 -18 -342 -201 -376 -201 -38
0 -15 24 65 65 49 25 124 70 168 100 83 57 86 58 121 49z m13748 -136 c64
-127 100 -292 86 -398 l-7 -55 -58 -9 c-31 -5 -60 -7 -63 -3 -3 3 0 39 6 81
14 90 2 192 -34 299 l-24 72 31 33 c17 17 32 32 34 32 1 0 15 -24 29 -52z
m-1424 -41 c46 -30 102 -64 126 -77 43 -24 54 -40 27 -40 -15 0 -233 119 -263
143 -11 8 -11 12 0 18 20 13 22 12 110 -44z m-12837 33 c8 -13 -252 -142 -278
-138 -15 2 19 25 113 75 141 74 155 79 165 63z m-1480 -40 c28 -29 28 -31 16
-82 -18 -77 -24 -205 -13 -270 l9 -58 -41 0 c-23 0 -46 4 -52 8 -18 11 -25
110 -14 202 10 85 47 230 60 230 3 0 19 -13 35 -30z m14309 -45 c69 -38 126
-73 126 -77 0 -20 -43 -3 -154 58 -141 78 -130 70 -121 84 9 14 4 16 149 -65z
m-12794 57 c0 -13 -255 -135 -271 -130 -8 3 45 35 116 71 127 64 155 75 155
59z m14130 -69 c12 -38 25 -99 28 -138 8 -79 -3 -202 -20 -222 -6 -7 -30 -13
-53 -13 l-43 0 14 53 c19 70 18 196 -2 276 l-17 65 29 23 c16 13 32 23 36 23
4 0 17 -30 28 -67z m-14091 34 c-14 -12 -244 -117 -255 -117 -34 0 -5 19 114
76 71 34 131 57 136 53 5 -5 8 -10 5 -12z m12700 -43 c127 -72 144 -84 117
-84 -26 0 -267 130 -260 141 9 16 24 10 143 -57z m-12659 26 c11 -7 4 -13 -30
-28 -25 -11 -89 -40 -144 -66 -54 -25 -100 -46 -102 -46 -2 0 -1 7 3 16 3 10
61 43 127 75 136 65 126 62 146 49z m12636 -61 c74 -39 134 -74 134 -79 0 -8
-264 123 -284 141 -29 26 31 1 150 -62z m-14127 22 l35 -18 -2 -109 c-2 -67 3
-132 12 -168 l14 -58 -57 7 c-31 4 -57 8 -59 10 -11 10 -23 144 -18 205 7 80
22 150 34 150 4 -1 22 -9 41 -19z m15433 -18 c17 -49 17 -235 0 -290 -12 -40
-13 -41 -65 -45 -28 -3 -55 -3 -58 -1 -4 1 5 26 19 55 29 61 41 179 24 241
-10 37 -9 39 21 58 18 10 35 19 39 19 3 0 12 -17 20 -37z m-15237 -135 c2 -42
11 -105 20 -138 9 -34 14 -65 11 -67 -3 -3 -34 -2 -70 2 -65 6 -66 7 -77 43
-13 45 -24 221 -15 255 l6 25 60 -22 61 -22 4 -76z m865 107 c0 -10 -218 -115
-239 -115 -38 0 -17 16 105 76 89 44 134 57 134 39z m14265 -98 c0 -82 -4 -98
-31 -152 l-30 -60 -179 4 -180 3 -60 57 c-33 32 -70 63 -82 70 -13 6 -23 16
-23 21 0 6 10 10 23 10 82 0 414 92 507 140 23 12 39 15 45 9 6 -6 10 -51 10
-102z m-781 38 c74 -42 101 -61 87 -63 -25 -4 -233 107 -225 120 9 13 20 9
138 -57z m-13527 -10 c-53 -30 -107 -55 -119 -55 -32 0 -14 15 83 65 126 67
157 58 36 -10z m13468 -5 c85 -47 96 -55 73 -58 -29 -3 -37 0 -142 61 -50 29
-65 42 -55 48 8 5 16 8 19 6 3 -1 50 -27 105 -57z m-13340 31 c-21 -19 -169
-90 -178 -84 -11 7 -11 7 69 52 61 34 135 56 109 32z m-775 -31 c72 -16 154
-30 317 -56 l32 -5 -44 -40 c-24 -22 -51 -60 -60 -84 -20 -52 -32 -55 -216
-55 l-127 0 -10 28 c-25 63 -36 137 -33 221 1 20 4 22 29 16 15 -4 65 -15 112
-25z m824 21 c3 -4 -35 -32 -85 -61 -79 -47 -158 -115 -170 -147 -6 -15 -79
-27 -79 -12 0 23 96 109 122 109 16 0 27 7 30 18 3 10 40 37 84 60 85 45 90
46 98 33z m13218 -33 c91 -53 68 -64 -26 -13 -36 20 -68 41 -72 46 -12 20 29
6 98 -33z m-48 -15 c36 -20 66 -41 66 -46 0 -12 -12 -7 -95 42 -87 51 -62 55
29 4z m-13617 -91 c-27 -26 -56 -62 -64 -79 -10 -25 -20 -33 -38 -33 -18 0
-25 5 -25 19 0 50 108 152 153 144 23 -5 22 -7 -26 -51z m116 42 c4 -4 -14
-25 -39 -47 -24 -21 -51 -52 -59 -67 -13 -25 -57 -45 -69 -32 -9 8 21 56 56
88 60 56 95 74 111 58z m38 -46 c-24 -23 -47 -52 -51 -64 -8 -21 -64 -43 -77
-30 -19 19 111 136 151 136 18 0 14 -7 -23 -42z m13865 -2 c33 -24 70 -55 83
-70 l24 -26 -31 0 c-23 0 -37 8 -56 33 -14 17 -45 46 -70 62 -25 17 -46 33
-46 38 0 19 43 3 96 -37z m-223 -13 c26 -19 47 -38 47 -42 0 -20 -43 0 -91 43
-42 36 -48 46 -29 40 14 -3 46 -22 73 -41z m38 18 c24 -15 55 -40 68 -55 21
-23 22 -26 6 -26 -9 0 -34 15 -54 33 -20 17 -49 42 -66 54 -45 33 -8 29 46 -6z
m102 0 c23 -16 55 -43 71 -60 l30 -31 -36 0 c-26 0 -44 8 -69 33 -19 17 -50
44 -69 59 l-35 27 33 1 c21 0 49 -11 75 -29z m-74 -108 c3 -2 0 -8 -6 -14 -12
-12 -53 4 -53 22 0 8 48 3 59 -8z m-13669 -13 c0 -13 -48 -32 -61 -24 -15 9
-10 22 9 27 31 8 52 7 52 -3z m13754 2 c8 -13 -34 -53 -47 -46 -32 19 -37 27
-26 40 13 15 65 19 73 6z m-14805 -8 c17 -4 31 -11 31 -17 0 -6 18 -47 40 -92
45 -94 112 -163 213 -219 58 -33 220 -92 315 -116 38 -10 42 -14 42 -40 0 -39
-14 -39 -161 -1 -319 80 -463 189 -533 397 -14 44 -26 82 -26 87 0 9 37 9 79
1z m962 -10 c11 -14 10 -18 -6 -30 -26 -20 -52 -17 -65 5 -14 28 -13 29 18 34
15 2 30 5 33 6 4 0 13 -6 20 -15z m13932 7 c16 -6 14 -11 -20 -50 l-38 -43
-24 19 c-24 20 -24 20 -5 51 19 33 46 40 87 23z m917 -6 c0 -42 -51 -124 -112
-181 -143 -133 -314 -220 -577 -293 -72 -20 -81 -19 -81 9 0 13 24 26 92 50
104 36 227 96 308 149 83 54 200 170 224 221 21 44 23 45 76 51 30 3 58 6 63
7 4 1 7 -5 7 -13z m-15669 -5 c35 0 40 -3 60 -42 38 -75 82 -129 144 -175 62
-48 189 -112 263 -134 35 -10 42 -16 40 -33 -4 -26 -21 -24 -148 16 -216 68
-340 158 -405 291 -34 71 -36 93 -8 83 8 -3 32 -6 54 -6z m738 -25 l20 -35
-21 -11 c-19 -10 -25 -8 -50 22 -33 39 -34 46 -10 52 34 9 40 6 61 -28z
m13771 25 c18 -11 16 -13 -37 -33 -35 -14 -43 -14 -53 -2 -9 11 -6 17 17 29
33 18 52 19 73 6z m336 -2 c8 -13 -91 -108 -112 -108 -28 0 -24 23 10 60 20
22 36 45 36 50 0 14 57 12 66 -2z m-14596 -59 c45 -70 127 -140 214 -185 76
-39 83 -47 67 -73 -8 -12 -16 -13 -53 -2 -82 24 -223 101 -281 152 -47 42
-116 136 -117 159 0 3 31 4 69 2 l70 -4 31 -49z m344 22 c14 -21 37 -48 52
-60 l27 -21 -41 -44 c-22 -23 -45 -53 -51 -65 -7 -11 -18 -21 -27 -21 -48 0
-208 111 -258 179 -20 27 -36 51 -36 55 0 3 66 7 148 9 81 1 150 4 154 5 4 1
19 -15 32 -37z m56 25 c0 -8 12 -29 26 -46 20 -23 24 -34 16 -42 -9 -9 -22 -1
-52 31 -46 49 -51 71 -15 71 15 0 25 -6 25 -14z m14500 4 l55 -1 -50 -45 c-93
-84 -307 -208 -325 -187 -3 4 -23 31 -44 60 l-37 52 63 65 63 65 110 -4 c61
-3 135 -5 165 -5z m137 -85 c-80 -75 -178 -136 -304 -190 -101 -44 -113 -45
-124 -17 -8 20 -3 25 56 51 92 42 200 114 270 181 57 55 64 59 115 62 30 2 57
-1 59 -7 2 -5 -30 -41 -72 -80z m213 81 c0 -52 -176 -205 -327 -283 -86 -45
-271 -118 -278 -111 -2 2 -5 14 -7 26 -3 21 5 27 57 47 77 29 198 89 255 128
72 48 167 135 190 172 19 31 26 35 66 35 31 0 44 -4 44 -14z m-14527 -18 c28
-14 37 -38 13 -38 -25 0 -87 31 -81 40 8 14 36 12 68 -2z m13606 -7 l24 -18
-57 -22 c-68 -25 -92 -26 -100 -5 -8 21 -10 19 44 43 56 25 60 25 89 2z m-194
-11 c0 -11 -19 -18 -65 -26 -78 -14 -220 -17 -220 -5 0 4 35 11 78 15 42 3
100 12 127 20 60 17 80 16 80 -4z m-13464 -12 c41 -16 59 -28 59 -40 0 -11 -7
-18 -17 -18 -23 0 -105 25 -134 41 l-22 12 24 13 c30 17 22 18 90 -8z m277
-19 c70 -8 111 -17 109 -23 -6 -18 -47 -19 -164 -1 -87 13 -113 21 -113 32 0
11 7 14 28 10 15 -4 78 -12 140 -18z m13450 -24 c-28 -27 -152 -56 -175 -42
-22 14 -14 23 30 37 23 6 58 20 77 30 31 16 36 16 58 2 19 -12 21 -17 10 -27z
m-13755 -11 c76 -27 98 -52 41 -46 -32 3 -141 37 -163 51 -20 13 -2 34 23 27
11 -3 56 -17 99 -32z m13157 26 c-8 -5 -87 -10 -175 -10 -107 0 -155 4 -145
10 8 5 87 10 175 10 107 0 155 -4 145 -10z m363 -4 c8 -20 -9 -24 -154 -32
-84 -4 -128 -3 -133 4 -4 6 24 13 78 17 47 4 100 11 118 15 53 13 85 11 91 -4z
m-738 -6 c4 -6 -7 -10 -27 -10 -18 0 -106 -10 -196 -22 -116 -16 -165 -19
-173 -11 -8 8 13 14 73 22 211 30 313 37 323 21z m-12515 -21 c104 -14 120
-18 120 -29 0 -13 -53 -13 -161 1 -94 12 -116 20 -104 39 5 8 19 10 39 6 17
-4 65 -11 106 -17z m539 6 c2 -3 -2 -12 -10 -21 -11 -14 -27 -15 -109 -10
-235 16 -249 18 -243 34 5 13 30 14 182 8 97 -4 177 -9 180 -11z m-819 -51
c64 -17 99 -34 70 -34 -60 1 -236 62 -225 79 3 6 23 2 48 -9 23 -10 71 -26
107 -36z m13204 48 c5 -8 -183 -22 -296 -22 -52 0 -66 16 -20 23 53 8 311 7
316 -1z m600 -29 c-25 -19 -112 -49 -161 -58 -38 -6 -43 -5 -43 13 0 16 11 22
58 31 31 6 75 20 97 30 29 13 44 15 53 8 11 -9 11 -13 -4 -24z m-12754 17
c165 -17 181 -21 178 -39 -2 -9 -12 -15 -23 -14 -11 1 -87 7 -170 13 -186 14
-196 16 -189 35 7 18 64 19 204 5z m11769 -3 c9 -11 -9 -16 -102 -26 -61 -7
-143 -18 -182 -26 -48 -9 -74 -10 -82 -3 -7 6 -11 14 -8 18 3 4 67 15 142 24
76 10 147 19 158 20 46 7 63 5 74 -7z m735 -12 c5 -13 -15 -15 -139 -15 -168
0 -200 18 -42 23 56 1 118 4 138 5 25 1 39 -3 43 -13z m-13680 -15 c25 -12 78
-29 118 -39 l73 -19 3 -71 c3 -63 1 -71 -15 -71 -21 0 -265 63 -305 79 -16 6
-28 14 -28 18 0 12 89 123 99 123 5 0 29 -9 55 -20z m769 4 c127 -6 162 -14
138 -28 -10 -6 -343 12 -350 19 -1 2 0 9 4 15 4 7 20 10 39 6 17 -3 93 -8 169
-12z m11713 -10 c-13 -10 -382 -94 -393 -90 -26 10 -4 22 82 46 149 42 289 67
301 56 7 -6 11 -11 10 -12z m-12101 1 c61 -8 113 -15 118 -15 4 0 7 -4 7 -10
0 -13 -63 -13 -172 1 -62 8 -88 16 -88 25 0 17 0 17 135 -1z m12910 5 c-108
-12 -285 -18 -285 -9 0 12 46 16 205 16 124 0 138 -1 80 -7z m715 -41 c22 -28
40 -54 40 -58 0 -11 -259 -90 -297 -91 -9 0 -13 19 -13 64 l0 63 48 7 c26 4
74 20 107 36 33 15 63 29 67 29 4 1 26 -22 48 -50z m-12514 25 c104 -21 324
-85 324 -94 0 -4 -7 -13 -15 -20 -13 -10 -43 -4 -168 34 -83 25 -171 49 -195
52 -44 7 -58 17 -47 34 8 13 9 13 101 -6z m11479 7 c3 -6 -9 -12 -27 -15 -18
-3 -100 -16 -182 -31 -119 -20 -151 -23 -157 -13 -12 18 14 25 181 47 176 23
177 23 185 12z m-11791 -16 c82 -8 151 -17 154 -20 24 -23 -77 -20 -346 11
-23 3 -40 9 -37 15 8 12 53 11 229 -6z m12516 -12 c0 -14 -17 -15 -133 -11
-186 6 -198 22 -22 28 77 3 143 4 148 2 4 -2 7 -10 7 -19z m-12932 1 c90 -5
131 -10 129 -18 -2 -6 -17 -10 -33 -9 -16 1 -95 5 -176 9 -82 3 -148 9 -148
13 0 17 17 22 55 17 22 -3 100 -8 173 -12z m11771 3 c8 -11 -5 -17 -67 -31
-42 -10 -132 -34 -200 -53 -100 -29 -125 -33 -138 -23 -8 7 -11 17 -6 22 10
10 348 97 378 98 12 0 26 -6 33 -13z m841 4 c0 -5 -78 -11 -172 -13 -175 -5
-244 2 -133 13 99 9 305 10 305 0z m-12985 -21 c50 -5 94 -10 98 -10 5 0 6 -4
3 -8 -9 -14 -256 14 -256 29 0 6 15 7 33 4 17 -3 73 -10 122 -15z m12595 0 c0
-5 -12 -10 -27 -10 -16 0 -93 -14 -173 -30 -170 -35 -160 -34 -160 -17 0 9 30
20 93 31 198 37 267 44 267 26z m-11823 -15 c81 -9 149 -18 152 -21 16 -16
-25 -20 -99 -9 -47 7 -129 16 -182 20 -54 4 -98 11 -98 16 0 13 60 11 227 -6z
m310 0 c78 -18 285 -85 296 -94 4 -5 2 -12 -5 -18 -9 -7 -56 4 -163 38 -82 26
-169 51 -192 54 -27 5 -43 13 -43 21 0 18 29 18 107 -1z m11921 -18 c16 -32
27 -157 15 -173 -6 -9 -314 -74 -349 -74 -5 0 -9 39 -9 87 0 49 -4 109 -9 135
l-8 47 63 4 c35 2 113 3 174 3 110 -1 110 -1 123 -29z m-12987 -1 l76 -7 -5
-82 c-2 -45 -5 -83 -6 -84 -4 -5 -223 41 -233 50 -13 9 -19 128 -8 139 3 3 27
2 53 -2 26 -4 81 -11 123 -14z m362 8 c65 -3 117 -10 117 -16 0 -6 -25 -7 -62
-4 -35 3 -116 8 -180 12 -70 3 -116 10 -112 15 3 6 31 7 62 5 32 -3 110 -8
175 -12z m11801 1 c3 -9 0 -18 -7 -20 -6 -2 -95 -28 -197 -59 -168 -50 -186
-53 -197 -38 -7 9 -13 19 -13 22 0 8 356 107 391 109 9 1 20 -6 23 -14z m1129
-2 c9 -5 9 -104 -1 -119 -4 -7 -62 -23 -128 -36 l-122 -25 -5 76 c-3 42 -9 87
-13 100 l-7 23 134 -7 c74 -4 137 -9 142 -12z m-686 -48 c12 -54 14 -143 4
-189 -6 -29 -8 -30 -156 -61 -82 -18 -168 -37 -189 -43 -22 -7 -41 -10 -42 -9
-2 1 2 23 7 47 6 25 9 90 7 145 l-3 100 60 13 c118 27 250 51 275 49 21 -2 27
-9 37 -52z m-11942 30 c136 -9 236 -26 232 -39 -3 -6 -9 -10 -14 -9 -41 8
-233 33 -296 38 -44 4 -75 11 -71 16 3 5 20 7 37 5 18 -3 68 -8 112 -11z
m-344 -10 l145 -7 -4 -111 c-2 -62 -5 -113 -6 -113 0 -1 -80 15 -176 35 l-175
36 0 70 c0 92 7 108 42 101 16 -3 94 -8 174 -11z m857 -45 c85 -27 156 -51
160 -54 3 -4 1 -11 -6 -18 -8 -8 -57 4 -189 46 -98 31 -184 56 -191 56 -6 0
-12 7 -12 16 0 22 50 13 238 -46z m10457 29 c-48 -19 -375 -119 -388 -119 -28
0 -29 20 -1 30 15 6 104 35 198 65 136 42 175 51 191 43 19 -11 19 -11 0 -19z
m553 -1 c-6 -16 -381 -128 -392 -117 -5 5 -7 12 -3 16 11 10 348 111 375 112
14 1 22 -4 20 -11z m-11396 -22 c43 -7 80 -15 83 -18 4 -3 1 -43 -5 -89 -6
-45 -8 -105 -5 -132 l7 -50 -28 6 c-48 8 -338 78 -346 83 -10 6 -11 149 -1
194 l6 33 106 -7 c58 -4 141 -13 183 -20z m870 -42 c178 -59 198 -67 181 -80
-10 -7 -24 -14 -32 -14 -7 0 -98 28 -202 61 -182 60 -189 63 -173 80 10 11 19
19 22 19 2 0 94 -30 204 -66z m-541 1 c96 -30 180 -57 186 -60 7 -2 10 -11 7
-18 -4 -11 -44 -2 -195 46 -118 38 -189 66 -189 74 0 7 4 13 8 13 5 0 87 -25
183 -55z m10561 38 c17 -15 7 -20 -178 -81 -193 -63 -197 -63 -216 -45 -18 19
-16 20 164 77 101 32 188 59 193 61 17 6 18 5 37 -12z m1982 -36 c-16 -9 -321
-87 -341 -87 -7 0 -13 3 -13 8 1 22 25 34 111 57 52 13 126 35 164 48 l70 24
12 -21 c9 -17 9 -23 -3 -29z m-14193 28 c37 -13 197 -55 302 -79 27 -6 39 -36
13 -36 -19 0 -193 36 -299 62 -66 16 -87 25 -82 35 3 8 5 19 5 24 0 13 11 11
61 -6z m12733 -17 c19 -72 -3 -251 -32 -267 -10 -5 -77 -25 -150 -45 -73 -21
-139 -39 -146 -42 -10 -4 -15 13 -21 63 -4 37 -16 95 -26 128 -10 33 -19 63
-19 67 0 7 72 30 270 89 117 34 116 34 124 7z m-11080 -62 c168 -54 178 -59
172 -79 -15 -49 -36 -171 -36 -203 0 -40 20 -43 -200 25 l-155 47 -5 55 c-5
53 4 179 15 207 3 8 11 12 18 9 6 -2 92 -30 191 -61z m478 2 c172 -57 210 -77
164 -86 -17 -4 -354 104 -370 118 -8 8 0 30 12 30 3 0 91 -28 194 -62z m10128
32 c8 -15 8 -21 -2 -25 -7 -2 -93 -31 -190 -64 -173 -58 -177 -59 -194 -40 -9
11 -15 22 -12 25 8 7 359 124 375 124 7 0 17 -9 23 -20z m1968 -38 c4 -25 -27
-36 -241 -82 -78 -16 -150 -32 -159 -34 -19 -4 -23 10 -10 32 5 7 73 28 153
47 79 18 164 40 189 48 55 18 64 17 68 -11z m-14078 -32 c107 -23 198 -47 202
-54 12 -18 9 -24 -9 -20 -29 7 -422 84 -428 84 -3 0 -5 10 -5 21 0 17 5 20 23
17 12 -3 110 -24 217 -48z m1945 -6 c93 -31 174 -60 180 -65 5 -6 5 -13 -2
-20 -8 -8 -62 7 -194 52 -101 34 -186 64 -188 65 -6 5 10 24 22 24 7 0 88 -25
182 -56z m9625 26 c13 -8 13 -10 0 -14 -8 -3 -109 -39 -224 -80 -176 -64 -211
-74 -230 -64 -11 6 -16 13 -11 15 6 2 102 37 215 78 214 77 226 80 250 65z
m568 -1 c-6 -17 -366 -140 -374 -128 -3 6 -3 13 1 17 12 12 329 121 353 121
13 1 22 -4 20 -10z m1522 -4 c0 -9 -10 -20 -22 -25 -28 -11 -230 -51 -235 -46
-2 2 -1 10 3 19 3 9 27 20 57 26 29 6 81 17 117 25 36 8 68 14 73 15 4 1 7 -6
7 -14z m-13317 -17 c67 -13 111 -26 114 -35 3 -8 4 -16 1 -18 -2 -3 -55 5
-117 17 -82 17 -115 27 -122 40 -12 23 -9 23 124 -4z m1585 -52 c160 -54 186
-66 163 -80 -7 -5 -358 107 -368 118 -9 8 9 27 21 23 6 -2 89 -30 184 -61z
m576 -17 c113 -39 206 -75 206 -79 0 -4 -11 -12 -24 -18 -21 -9 -56 0 -233 60
-114 39 -210 73 -213 76 -7 5 31 32 46 32 7 0 105 -32 218 -71z m9130 52 c17
-18 16 -20 -6 -26 -13 -4 -110 -39 -217 -77 -172 -63 -196 -69 -217 -57 -28
15 -30 25 -6 32 9 3 105 37 212 76 107 38 200 70 206 71 6 0 19 -9 28 -19z
m545 -58 c27 -94 36 -179 19 -189 -15 -10 -331 -124 -333 -121 -1 1 -7 29 -14
62 -7 33 -25 90 -41 127 l-28 67 102 35 c193 69 241 85 258 85 13 1 22 -16 37
-66z m-12166 7 c210 -42 219 -44 233 -71 8 -15 14 -30 14 -31 0 -2 -114 17
-252 42 l-253 45 -3 34 c-3 31 -1 33 20 29 13 -3 121 -25 241 -48z m14077 25
c0 -14 -2 -25 -4 -25 -2 0 -106 -20 -231 -46 -125 -25 -231 -44 -236 -42 -4 2
-5 9 0 17 5 8 82 29 183 51 96 21 197 45 224 53 66 20 64 20 64 -8z m-13398
-26 c131 -26 159 -35 164 -51 3 -11 4 -21 2 -23 -3 -3 -329 69 -354 79 -8 3
-14 13 -14 22 0 12 6 15 23 11 12 -3 93 -20 179 -38z m12676 24 c-3 -17 -35
-26 -339 -87 -23 -4 -26 -2 -22 14 3 11 6 20 7 20 8 3 335 68 344 69 8 0 12
-7 10 -16z m-11469 -48 c90 -30 166 -57 168 -59 3 -3 -6 -33 -20 -68 -14 -35
-31 -91 -38 -126 -6 -34 -15 -61 -19 -60 -3 2 -74 27 -156 57 -82 30 -153 58
-158 62 -10 9 8 170 25 218 6 17 16 31 23 31 6 0 85 -25 175 -55z m531 -20
c107 -37 199 -71 204 -75 4 -5 0 -12 -10 -17 -14 -7 -71 9 -224 63 -113 40
-207 73 -209 73 -2 1 2 8 9 16 7 9 18 14 24 12 6 -2 99 -35 206 -72z m-2051
38 c82 -15 116 -32 99 -48 -7 -8 -211 36 -225 47 -21 17 -15 31 10 25 12 -3
64 -14 116 -24z m11315 5 c5 -9 8 -19 6 -21 -12 -8 -400 -147 -412 -147 -8 0
-23 9 -32 19 -19 21 -35 14 254 120 143 53 166 56 184 29z m1936 16 c0 -30
-26 -43 -135 -64 -64 -12 -118 -20 -121 -17 -3 3 -1 14 4 24 8 13 39 24 114
39 112 24 138 27 138 18z m-11047 -173 c4 -4 2 -13 -6 -19 -10 -9 -60 5 -218
60 -112 40 -206 73 -208 75 -2 1 2 9 8 17 11 13 40 5 214 -55 111 -39 206 -74
210 -78z m-1879 83 c160 -36 186 -45 186 -69 0 -8 -49 0 -162 27 -90 21 -173
41 -184 43 -27 6 -41 35 -17 35 9 0 89 -16 177 -36z m386 -14 c90 -23 165 -42
166 -43 1 -1 4 -14 8 -29 6 -26 5 -26 -26 -17 -18 5 -100 28 -183 50 -82 23
-153 46 -157 52 -13 21 -9 35 10 31 9 -2 91 -22 182 -44z m10640 35 c0 -8 -5
-15 -10 -15 -6 0 -96 -32 -201 -71 -140 -53 -193 -69 -201 -61 -7 7 -9 14 -7
17 10 9 384 144 402 145 9 0 17 -7 17 -15z m1241 -4 c-8 -14 -53 -29 -188 -62
-98 -24 -184 -45 -191 -47 -24 -7 -8 32 18 44 26 13 322 82 353 83 14 1 16 -3
8 -18z m369 12 c-1 -27 -33 -40 -191 -75 -95 -21 -174 -36 -176 -34 -2 2 1 14
7 27 10 22 28 28 158 56 152 32 202 38 202 26z m-12828 -73 c23 -28 23 -43 1
-36 -10 3 -58 13 -106 22 -70 13 -92 22 -107 42 -11 13 -20 28 -20 32 0 4 48
-2 107 -15 81 -17 111 -27 125 -45z m1834 -9 c107 -38 198 -72 202 -75 3 -4 1
-11 -4 -16 -8 -8 -299 86 -402 130 -22 9 -22 30 -1 30 5 0 97 -31 205 -69z
m11213 41 c-8 -13 -38 -24 -103 -36 -50 -9 -102 -20 -116 -23 l-25 -5 20 20
c13 14 51 28 110 40 121 26 128 27 114 4z m-2480 -1 c9 -6 -9 -17 -60 -36 -41
-16 -119 -45 -174 -67 -88 -34 -135 -41 -135 -20 0 8 318 131 340 131 8 1 21
-3 29 -8z m698 -41 c20 -43 53 -161 53 -194 0 -9 -6 -16 -12 -16 -7 -1 -85
-31 -173 -69 l-160 -67 -21 51 c-25 63 -58 117 -97 162 -16 19 -28 35 -26 37
17 13 378 144 394 143 13 -1 28 -18 42 -47z m-9544 -9 c171 -60 287 -102 287
-107 0 -1 -14 -27 -31 -55 -26 -45 -62 -129 -83 -191 -5 -16 -8 -16 -38 -3
-18 8 -100 43 -183 78 l-150 63 3 45 c6 69 57 209 77 209 3 0 56 -18 118 -39z
m733 -26 c97 -35 179 -67 182 -70 5 -5 -42 -25 -60 -25 -5 0 -93 30 -195 67
-164 59 -183 68 -167 80 29 21 54 16 240 -52z m-2216 9 c140 -32 158 -39 182
-67 15 -17 26 -32 24 -34 -1 -2 -86 17 -187 42 -148 36 -187 49 -201 67 -24
31 -22 39 5 33 12 -2 92 -21 177 -41z m10405 32 c24 -17 39 -9 -185 -95 -150
-57 -156 -59 -182 -43 -15 9 -25 18 -23 20 10 11 332 131 351 132 11 0 29 -6
39 -14z m1783 -21 c-8 -17 -24 -28 -52 -36 -23 -5 -108 -28 -190 -50 -81 -22
-150 -38 -153 -36 -9 10 22 57 41 63 54 18 323 83 343 83 20 1 22 -1 11 -24z
m-11830 -31 c92 -25 168 -47 168 -47 13 -18 22 -47 16 -47 -5 0 -61 15 -123
34 -63 19 -140 41 -171 50 -35 10 -62 24 -68 36 -8 14 -8 20 0 20 6 0 86 -21
178 -46z m12176 31 c-4 -8 -9 -15 -13 -15 -3 0 -82 -18 -175 -40 -93 -22 -171
-39 -172 -37 -1 1 4 10 11 21 10 13 56 28 162 51 172 39 195 41 187 20z
m-11789 -56 c77 -23 143 -47 147 -53 13 -19 9 -59 -4 -54 -7 3 -84 29 -171 58
-126 41 -160 57 -167 74 -11 29 -4 36 28 26 15 -5 90 -28 167 -51z m1387 -5
c101 -37 185 -68 186 -69 2 -2 -5 -8 -16 -14 -17 -9 -52 0 -184 48 -238 87
-225 81 -208 91 24 15 30 14 222 -56z m9668 58 c0 -25 -39 -44 -165 -81 -77
-22 -144 -41 -148 -41 -5 0 -7 10 -5 23 3 19 20 27 148 64 153 44 170 48 170
35z m-1325 -22 c10 -11 16 -22 14 -24 -2 -1 -83 -33 -180 -70 -174 -67 -177
-68 -203 -51 -15 10 -24 20 -21 24 8 8 347 140 361 140 6 1 19 -8 29 -19z
m-8330 -97 c130 -47 120 -42 103 -60 -18 -18 1 -23 -243 67 -77 28 -142 53
-144 56 -2 2 2 10 8 18 11 13 26 10 109 -21 53 -19 129 -46 167 -60z m8373 32
c-13 -7 -96 -40 -186 -75 -122 -48 -166 -60 -174 -52 -6 6 -9 14 -6 17 3 4 86
37 184 75 136 52 182 66 192 57 11 -9 9 -13 -10 -22z m-10198 -5 c219 -63 239
-70 261 -101 12 -17 19 -32 17 -34 -5 -5 -286 81 -316 97 -27 14 -71 70 -50
63 7 -2 47 -14 88 -25z m11804 0 c-11 -11 -91 -41 -184 -69 -91 -27 -173 -53
-184 -57 -17 -7 -17 -5 -2 23 14 28 26 34 163 71 244 68 243 68 207 32z
m-10092 -46 c98 -36 178 -70 178 -75 0 -22 -31 -14 -197 47 -201 74 -195 72
-188 85 10 15 20 12 207 -57z m9724 27 c-14 -27 -30 -34 -154 -74 -75 -24
-139 -43 -140 -41 -2 1 -1 16 3 32 6 27 13 31 143 71 164 51 156 49 160 46 2
-2 -4 -17 -12 -34z m-1827 20 c17 -11 29 -6 -187 -91 -151 -60 -186 -68 -197
-51 -5 8 334 150 360 150 6 1 17 -3 24 -8z m-9186 -53 c134 -45 161 -57 168
-77 5 -13 8 -25 6 -27 -1 -2 -75 22 -164 52 -131 46 -163 60 -172 80 -6 13 -7
24 -4 24 4 0 79 -24 166 -52z m9863 -10 c45 -60 94 -155 94 -181 0 -11 -347
-184 -354 -176 -1 2 -17 35 -35 73 -17 38 -52 98 -77 133 -25 35 -44 66 -42
68 5 5 352 144 361 145 4 0 28 -28 53 -62z m844 42 c0 -10 -8 -24 -18 -29 -20
-11 -297 -111 -306 -111 -3 0 -6 11 -6 24 0 21 11 28 103 60 56 21 125 46 152
56 64 24 75 24 75 0z m-8773 -76 c73 -27 133 -52 133 -55 0 -4 -12 -12 -28
-18 -24 -10 -48 -4 -212 58 l-185 70 35 14 c31 14 39 13 80 -3 25 -9 105 -39
177 -66z m-1604 26 c175 -63 177 -64 177 -100 0 -17 -3 -30 -7 -30 -5 0 -75
26 -158 58 -147 57 -150 59 -153 90 -2 18 -2 32 0 32 2 0 65 -22 141 -50z
m928 -16 l177 -67 -34 -44 c-46 -60 -78 -117 -99 -178 -10 -27 -21 -53 -25
-58 -5 -6 -281 117 -327 146 -25 16 87 267 120 267 5 0 90 -30 188 -66z m7998
49 c22 -18 19 -19 -165 -92 -167 -66 -188 -72 -210 -60 -13 7 -24 16 -24 20 0
7 345 147 366 148 7 1 21 -7 33 -16z m-7409 -98 c69 -26 129 -51 134 -55 4 -5
0 -12 -10 -18 -15 -7 -59 6 -184 54 -91 34 -174 65 -185 69 -19 5 -19 6 -2 19
21 16 26 15 247 -69z m7484 46 c17 -18 11 -21 -176 -95 l-193 -76 -23 23 -23
24 178 70 c98 39 187 71 199 72 11 1 29 -7 38 -18z m-9164 -106 c30 -16 60
-81 32 -70 -9 3 -81 29 -159 58 -86 31 -143 57 -146 67 -3 8 -8 23 -12 33 -6
14 17 9 126 -29 74 -26 145 -52 159 -59z m1579 39 c96 -36 179 -68 184 -71 5
-3 0 -11 -11 -19 -18 -12 -35 -8 -154 37 -73 28 -157 60 -186 71 -43 16 -51
22 -41 34 6 8 16 14 22 14 6 0 89 -30 186 -66z m8936 39 c-3 -16 -9 -31 -13
-35 -4 -3 -71 -31 -149 -61 l-143 -55 0 33 c0 33 2 34 93 69 109 42 199 74
211 75 4 1 5 -11 1 -26z m295 22 c0 -23 -39 -56 -83 -71 -29 -9 -85 -30 -125
-45 -40 -16 -77 -29 -83 -29 -11 0 -3 38 11 53 7 8 254 95 273 96 4 1 7 -1 7
-4z m-1600 -40 c10 -12 8 -16 -11 -24 -13 -5 -100 -39 -192 -76 -155 -62 -170
-66 -185 -52 -15 15 -14 17 14 27 16 6 101 39 189 75 88 35 163 64 166 64 4 1
12 -6 19 -14z m-9018 -46 c151 -59 158 -63 158 -94 0 -22 -5 -21 -147 37 -143
58 -163 69 -163 96 0 18 9 16 152 -39z m1329 -15 c183 -70 202 -80 181 -93 -8
-5 -84 19 -195 62 -100 38 -184 71 -186 72 -5 5 9 25 18 25 5 0 87 -30 182
-66z m8659 43 c0 -20 -21 -32 -163 -95 -90 -39 -167 -72 -170 -72 -4 0 -7 12
-7 26 0 27 23 40 225 125 107 45 115 46 115 16z m-9625 -72 l170 -73 -2 -32
c0 -17 -3 -33 -5 -35 -5 -5 -317 133 -335 147 -14 11 -18 68 -5 68 4 -1 84
-34 177 -75z m8045 65 c8 -5 12 -11 9 -14 -3 -3 -85 -37 -183 -75 -156 -60
-216 -75 -216 -52 0 5 353 148 370 150 3 0 12 -3 20 -9z m662 -27 c55 -60 138
-208 138 -246 0 -11 -357 -203 -365 -196 -2 2 -13 29 -25 59 -26 68 -61 129
-113 198 -22 29 -37 56 -33 60 6 6 352 149 367 151 3 1 17 -11 31 -26z m-7777
-49 c94 -36 174 -69 178 -74 5 -4 -11 -33 -36 -63 -47 -58 -96 -151 -117 -224
l-13 -42 -179 90 c-204 102 -191 82 -134 204 36 75 104 175 121 175 6 0 87
-29 180 -66z m664 -5 c102 -39 190 -75 194 -79 4 -4 -5 -13 -21 -19 -30 -13
-33 -12 -402 131 l-25 10 25 13 c14 8 29 14 34 15 6 0 93 -32 195 -71z m6535
22 c-5 -5 -86 -38 -180 -75 -153 -59 -175 -65 -198 -55 -14 7 -26 15 -26 19 0
4 55 29 123 55 67 26 147 58 177 70 50 20 58 21 84 8 15 -8 24 -18 20 -22z
m1796 -1 c-6 -11 -9 -24 -6 -29 4 -6 -158 -80 -256 -117 -15 -5 -18 0 -18 24
0 17 6 34 13 39 19 12 250 101 265 102 10 1 10 -4 2 -19z m-8413 -61 c103 -39
191 -75 196 -79 4 -3 -3 -11 -15 -16 -19 -9 -60 4 -222 67 -167 64 -196 78
-180 87 11 6 22 12 26 12 3 0 91 -32 195 -71z m-1812 -13 c50 -20 95 -40 101
-44 13 -9 36 -72 26 -72 -4 0 -65 25 -135 55 -70 30 -131 55 -137 55 -10 0
-40 52 -40 69 0 11 11 7 185 -63z m9925 43 c0 -25 -6 -32 -37 -45 -21 -9 -93
-40 -161 -70 -67 -30 -125 -54 -128 -54 -3 0 -4 15 -2 33 3 31 7 34 153 99 83
37 156 67 163 68 7 0 12 -13 12 -31z m-1445 1 c10 -11 16 -22 14 -25 -8 -7
-342 -135 -355 -135 -6 0 -19 9 -29 20 -17 19 -17 20 1 27 11 4 91 35 179 69
88 35 163 63 166 63 3 1 14 -8 24 -19z m-6718 -72 c106 -40 193 -76 193 -80 0
-4 -9 -12 -20 -18 -29 -16 -425 137 -408 157 6 7 18 13 27 13 9 0 103 -32 208
-72z m-1459 -13 c134 -60 152 -71 152 -91 0 -13 -4 -24 -9 -24 -14 0 -285 122
-297 134 -7 6 -15 22 -19 35 -6 18 -4 23 6 19 8 -3 83 -36 167 -73z m1406 -33
c167 -66 195 -80 182 -91 -13 -11 -47 0 -213 65 -109 42 -200 78 -202 80 -7 5
11 24 23 24 6 0 101 -35 210 -78z m6833 62 c2 -7 -71 -42 -174 -83 -170 -68
-178 -70 -195 -53 -17 17 -10 20 155 84 168 65 207 75 214 52z m1013 -9 c0
-22 -18 -34 -170 -110 -93 -47 -174 -85 -180 -85 -5 0 -10 12 -10 28 0 26 11
33 168 109 92 44 173 82 180 82 6 1 12 -10 12 -24z m-8877 -81 c89 -41 163
-77 165 -79 3 -2 1 -20 -2 -39 l-7 -34 -167 80 c-92 44 -169 82 -170 83 -5 5
9 65 15 65 3 0 78 -34 166 -76z m7250 56 c-4 -4 -100 -42 -212 -84 -183 -68
-242 -82 -241 -58 1 14 405 157 433 153 16 -2 25 -7 20 -11z m1985 -15 c-2
-35 -3 -36 -156 -110 -85 -41 -158 -75 -161 -75 -4 0 -5 18 -2 41 l6 41 155
69 c85 38 156 69 158 69 1 0 2 -16 0 -35z m-8248 -51 c104 -42 190 -78 190
-80 0 -2 -21 -32 -46 -66 -49 -67 -115 -196 -135 -265 -7 -24 -15 -43 -19 -43
-5 0 -65 32 -135 71 -71 39 -155 84 -187 100 -57 29 -59 31 -53 62 18 89 145
297 181 297 8 0 99 -34 204 -76z m6950 14 c48 -59 117 -189 126 -236 5 -26 -1
-30 -168 -121 -95 -51 -177 -93 -183 -93 -5 1 -16 27 -26 59 -23 83 -52 144
-106 226 -26 40 -48 76 -48 81 0 10 335 146 350 142 6 -1 30 -28 55 -58z
m-6132 -75 c46 -16 47 -28 4 -38 -21 -4 -74 12 -202 60 -96 37 -179 69 -184
73 -6 3 5 11 24 17 31 11 46 7 175 -43 77 -30 159 -61 183 -69z m5528 103 c18
-14 18 -15 -6 -24 -14 -5 -112 -42 -219 -82 -157 -59 -198 -71 -219 -64 -14 5
-25 14 -24 19 1 12 397 163 428 164 11 1 29 -5 40 -13z m-7691 -69 c118 -54
120 -55 123 -90 l3 -36 -128 59 c-95 43 -133 65 -145 87 -10 15 -18 34 -18 40
0 15 3 14 165 -60z m1870 8 c288 -109 261 -96 233 -111 -23 -12 -42 -6 -209
57 -101 39 -186 72 -188 75 -6 6 19 24 34 24 6 0 64 -20 130 -45z m7375 14 c0
-25 -6 -32 -35 -44 -19 -8 -92 -43 -162 -78 -172 -85 -163 -82 -163 -47 0 29
8 34 168 114 92 47 173 85 180 85 7 1 12 -11 12 -30z m-1485 1 c17 -19 17 -20
-11 -31 -164 -63 -402 -149 -414 -149 -16 1 -56 27 -49 33 8 7 434 166 445
167 6 0 19 -9 29 -20z m-7415 -93 c151 -75 165 -84 168 -111 2 -15 -1 -27 -6
-25 -6 2 -85 40 -176 84 -154 74 -165 82 -166 108 0 15 3 27 8 26 4 0 81 -37
172 -82z m1522 17 c95 -36 176 -69 181 -73 4 -4 -4 -13 -17 -21 -21 -11 -31
-10 -63 2 -21 8 -105 41 -187 73 -133 52 -147 59 -131 72 11 7 25 13 32 13 7
0 90 -30 185 -66z m5948 31 c7 -9 11 -18 8 -20 -2 -3 -99 -41 -214 -85 -182
-70 -212 -79 -231 -69 -13 7 -23 16 -23 19 0 4 42 22 93 40 50 18 148 55 217
81 69 27 128 48 131 49 4 0 12 -7 19 -15z m-6011 -76 c100 -39 181 -75 181
-80 0 -25 -43 -15 -210 51 -150 60 -179 74 -169 86 6 8 13 14 15 14 1 0 84
-32 183 -71z m7041 24 c0 -26 -13 -35 -176 -118 -96 -49 -179 -91 -183 -93 -5
-2 -11 9 -13 23 -5 23 2 29 96 79 159 84 260 136 269 136 4 0 7 -12 7 -27z
m394 -10 c-4 -21 -9 -42 -11 -46 -4 -6 -337 -177 -345 -177 -2 0 -1 21 1 46
l3 46 172 84 c94 46 175 84 179 84 4 0 5 -17 1 -37z m-2110 12 c3 -9 0 -18 -7
-20 -422 -156 -1015 -328 -1393 -404 -383 -77 -672 -106 -1059 -105 -583 1
-1026 61 -1615 221 -141 38 -584 182 -787 255 -63 23 -80 38 -44 38 11 0 22 4
26 9 3 6 34 -1 73 -16 159 -61 541 -189 714 -239 579 -167 1049 -234 1643
-234 671 0 1269 114 2130 406 165 56 303 102 306 103 4 0 10 -6 13 -14z m763
-42 c53 -77 96 -163 122 -247 11 -37 21 -69 21 -71 0 -2 -66 -40 -147 -85 -82
-46 -167 -94 -189 -107 l-42 -24 -16 72 c-22 98 -77 197 -158 284 l-68 73 97
37 c54 21 148 57 208 81 61 24 115 44 121 44 6 0 29 -26 51 -57z m-7159 -33
c86 -43 163 -83 170 -88 9 -6 11 -20 7 -45 l-7 -35 -166 85 c-92 47 -172 91
-179 97 -13 12 -6 66 8 66 5 0 80 -36 167 -80z m1044 3 l167 -66 -44 -49 c-85
-95 -148 -209 -180 -328 -8 -29 -17 -44 -26 -42 -33 8 -319 177 -319 189 0 7
11 46 25 85 46 131 159 296 194 283 9 -3 91 -36 183 -72z m-1434 -18 l172 -84
0 -35 0 -36 -162 80 c-210 103 -198 95 -198 130 0 17 4 30 8 30 4 0 85 -38
180 -85z m6851 51 c23 -13 23 -14 5 -24 -35 -19 -557 -190 -749 -246 -465
-135 -861 -216 -1290 -262 -196 -22 -711 -24 -945 -5 -526 42 -1003 143 -1557
326 -200 67 -522 182 -532 191 -2 2 7 8 21 14 21 10 50 2 204 -53 654 -236
1165 -361 1729 -422 234 -26 804 -31 1025 -11 556 53 1075 173 1775 412 149
51 275 92 280 93 6 0 21 -6 34 -13z m85 -66 c-22 -22 -647 -223 -940 -303
-677 -186 -1281 -269 -1839 -253 -684 19 -1196 115 -1915 360 -202 70 -513
186 -524 196 -5 5 2 14 18 21 23 11 36 9 89 -10 808 -297 1295 -421 1912 -487
235 -24 787 -30 1015 -10 592 52 1272 213 2000 474 126 45 137 48 164 34 16
-7 24 -17 20 -22z m1576 13 c0 -26 -13 -35 -186 -125 l-185 -96 3 31 c3 30 13
36 178 124 96 51 178 93 183 93 4 0 7 -12 7 -27z m-7962 -186 c12 -9 17 -57 6
-57 -3 0 -84 41 -180 91 -166 87 -174 92 -174 121 l0 30 168 -88 c92 -47 173
-91 180 -97z m1273 112 c839 -318 1404 -456 2061 -500 203 -13 766 -7 923 11
438 49 857 134 1335 271 135 39 755 240 816 265 6 3 21 -4 34 -14 l23 -19
-214 -75 c-803 -284 -1401 -429 -2024 -490 -167 -16 -723 -16 -915 0 -660 57
-1144 175 -1925 467 -143 53 -264 101 -270 106 -6 7 -5 13 5 19 8 5 16 10 16
10 1 0 62 -23 135 -51z m31 -70 c916 -350 1506 -482 2281 -508 821 -29 1553
109 2670 502 l229 80 67 -67 c98 -98 156 -204 176 -322 l6 -41 -138 -73 c-76
-40 -158 -84 -183 -98 -25 -13 -108 -54 -185 -89 -681 -316 -1268 -425 -2352
-440 -434 -6 -443 -5 -495 15 -116 47 -164 52 -510 52 -306 0 -335 2 -465 25
-365 67 -709 181 -1061 350 -141 68 -502 262 -502 270 0 22 51 157 82 217 32
62 147 208 164 208 2 0 100 -37 216 -81z m6653 29 c-4 -24 -9 -46 -11 -50 -2
-3 -77 -46 -167 -94 -89 -48 -173 -94 -186 -102 l-23 -16 7 45 c3 24 8 51 11
60 4 13 345 198 367 199 5 0 6 -19 2 -42z m-7632 -125 c86 -47 117 -69 113
-80 -3 -8 -6 -23 -6 -34 0 -10 -4 -19 -10 -19 -7 0 -367 195 -378 205 -2 2 0
19 4 39 l6 37 77 -42 c42 -23 129 -71 194 -106z m7225 116 c2 -22 -16 -34
-174 -119 -96 -52 -179 -96 -185 -98 -5 -2 -9 10 -9 26 0 27 10 35 173 124 94
53 177 95 182 94 6 -2 11 -13 13 -27z m-7712 -71 l172 -92 4 -38 c2 -21 2 -38
1 -38 -6 0 -320 170 -335 182 -17 13 -35 78 -22 78 4 0 85 -41 180 -92z m7722
-15 c-3 -24 -24 -39 -178 -125 -96 -54 -181 -98 -187 -98 -19 0 -16 35 3 51
20 17 345 197 357 198 5 1 7 -11 5 -26z m-7321 -105 c173 -95 183 -103 183
-130 0 -16 -4 -28 -10 -26 -5 2 -90 48 -190 103 -165 92 -180 102 -180 128 0
15 3 27 7 27 4 0 90 -46 190 -102z m7308 0 c-17 -80 -22 -84 -205 -188 -96
-54 -176 -98 -176 -97 -1 1 3 28 10 61 l11 58 175 98 c96 54 179 99 183 99 5
1 5 -14 2 -31z m-7315 -96 c170 -96 175 -99 181 -135 4 -24 2 -37 -5 -37 -6 1
-87 45 -181 98 -165 95 -170 99 -176 135 -3 20 -3 37 1 37 3 0 84 -44 180 -98z
m6920 71 c0 -26 -16 -36 -184 -130 -102 -57 -189 -103 -196 -103 -6 0 -10 12
-8 28 3 24 24 39 183 129 99 55 186 102 193 102 7 1 12 -11 12 -26z m-6472
-98 l122 -69 0 -38 c0 -21 -4 -38 -10 -38 -5 0 -82 41 -170 91 -155 88 -160
92 -160 123 0 46 8 49 54 23 23 -13 96 -54 164 -92z m6465 -26 c-4 -4 -93 -55
-196 -113 l-188 -106 3 32 c3 29 14 37 193 138 183 102 190 105 193 82 2 -13
0 -28 -5 -33z m-6500 -78 c143 -81 147 -84 147 -116 l0 -34 -170 97 c-167 95
-170 98 -170 131 0 32 1 33 23 19 12 -8 88 -52 170 -97z m6497 7 c0 -13 -4
-39 -10 -58 -9 -32 -23 -43 -201 -143 -106 -59 -194 -105 -197 -102 -3 3 0 29
7 59 l12 55 187 105 c103 58 190 105 195 106 4 0 7 -10 7 -22z m-6184 -59
c305 -171 679 -339 939 -422 118 -38 359 -99 465 -117 98 -18 98 -18 57 -45
-45 -31 -57 -31 -198 0 -424 94 -794 240 -1271 502 l-118 64 0 40 c0 21 4 39
8 39 5 0 58 -28 118 -61z m-325 -45 l169 -96 0 -40 0 -39 -42 25 c-24 13 -101
58 -173 99 -126 72 -130 76 -133 111 -2 20 0 36 3 36 4 0 83 -43 176 -96z
m6097 65 c-3 -29 -14 -37 -178 -124 -209 -113 -474 -234 -663 -305 -542 -202
-1221 -301 -2057 -300 l-275 1 -39 34 -39 35 329 0 c985 0 1632 105 2259 365
120 50 404 188 540 263 61 34 114 61 118 62 5 0 7 -14 5 -31z m-4 -96 c-4 -16
-12 -34 -18 -41 -23 -25 -564 -289 -708 -346 -147 -58 -147 -58 -215 -49 l-68
9 70 23 c224 75 603 246 840 379 50 28 93 51 98 51 4 1 4 -11 1 -26z m-5687
-91 c274 -147 463 -231 723 -323 l135 -48 -88 0 c-97 -1 -140 11 -339 95 -113
49 -461 221 -573 285 -52 30 -60 39 -63 68 -2 18 0 32 5 30 5 -2 95 -50 200
-107z m153 -181 c107 -53 245 -117 305 -141 l110 -45 -88 -3 -89 -3 -121 56
c-90 41 -446 225 -464 239 -1 1 -5 21 -9 45 l-7 43 84 -47 c46 -25 172 -90
279 -144z m5516 163 c-4 -15 -10 -39 -13 -55 -3 -16 -18 -38 -33 -49 -44 -31
-375 -192 -511 -248 l-125 -51 -57 22 c-31 12 -57 24 -57 27 0 3 44 23 98 44
158 63 387 171 542 256 80 43 149 79 154 79 4 1 5 -11 2 -25z m-4548 -418 c56
-14 123 -28 147 -32 25 -3 45 -8 45 -10 0 -2 -5 -15 -12 -29 -14 -31 -20 -31
-198 11 -93 22 -109 28 -119 50 -16 36 -14 45 12 39 12 -3 68 -16 125 -29z
m3161 -10 c-2 -2 -26 -21 -54 -42 -46 -35 -61 -40 -180 -60 -314 -53 -672 -82
-1121 -91 l-320 -6 -22 30 -21 30 282 7 c365 9 596 22 837 46 180 19 559 76
569 86 2 2 11 4 19 4 9 0 13 -2 11 -4z m490 -61 c112 -27 187 -71 281 -165
131 -130 184 -253 197 -450 13 -202 -57 -390 -196 -530 -237 -237 -561 -240
-796 -5 -89 89 -138 170 -176 295 -31 99 -33 290 -5 390 29 101 93 216 161
289 147 158 340 221 534 176z m2751 -21 l85 -30 28 33 c38 44 83 45 129 4 l33
-29 3 -159 c3 -178 -2 -196 -60 -228 -35 -18 -40 -19 -80 -5 -39 14 -45 20
-63 71 -34 98 -84 132 -215 151 -216 32 -380 -52 -451 -229 -22 -53 -24 -72
-24 -238 0 -167 2 -184 23 -230 45 -97 137 -162 269 -186 83 -16 234 -5 316
21 l67 23 0 78 0 79 -140 0 -140 0 -37 33 c-30 28 -36 40 -36 73 0 48 24 88
62 103 19 8 107 11 284 9 l257 -3 26 -26 c37 -38 44 -104 14 -142 -13 -16 -33
-33 -46 -37 -24 -9 -24 -11 -24 -158 l0 -149 -78 -36 c-171 -78 -293 -103
-453 -93 -327 20 -519 169 -574 444 -25 121 -17 369 14 467 56 176 183 316
342 381 83 34 148 43 274 40 90 -3 125 -8 195 -32z m-6357 -16 l107 -22 0 -38
c0 -21 -2 -38 -5 -38 -8 0 -187 40 -208 46 -9 3 -24 21 -32 41 -19 46 -19 46
8 39 12 -3 70 -16 130 -28z m-3033 -400 c146 -230 269 -421 273 -424 4 -4 7
135 7 309 l0 317 -65 0 c-37 0 -78 6 -93 14 -73 38 -73 154 0 192 21 11 75 14
234 14 l206 0 35 -35 34 -34 29 32 28 32 162 0 163 0 136 -300 c75 -165 141
-311 147 -324 9 -21 26 11 155 300 l145 324 158 3 157 3 35 -35 c27 -27 34
-42 34 -74 0 -49 -36 -97 -80 -107 l-30 -7 0 -417 0 -417 46 -12 c25 -7 51 -9
57 -5 7 4 29 10 50 13 l39 5 159 400 c87 220 161 408 165 418 5 15 -4 17 -93
17 -116 0 -154 16 -173 74 -16 49 2 101 44 127 28 17 52 19 296 19 l265 0 119
-298 c321 -799 305 -762 338 -762 36 0 84 -24 98 -49 9 -18 12 -17 44 15 30
30 40 34 85 34 l51 0 0 420 0 420 -45 0 c-24 0 -56 5 -70 12 -74 34 -72 166 3
197 22 9 118 11 368 9 320 -4 342 -5 398 -26 124 -46 198 -111 248 -219 71
-151 38 -330 -83 -458 -98 -104 -200 -134 -451 -135 l-148 0 0 -109 0 -110
146 -3 146 -3 29 -33 c40 -45 40 -99 0 -144 l-29 -33 -312 0 -312 0 -28 32
-29 32 -15 -24 c-26 -40 -74 -47 -294 -43 l-204 3 -29 33 c-20 22 -29 43 -29
67 0 77 44 115 133 115 l55 0 -26 65 -25 65 -257 0 -257 0 -22 -56 c-11 -31
-21 -60 -21 -65 0 -5 22 -9 50 -9 61 0 97 -16 116 -51 30 -60 11 -128 -43
-154 -29 -14 -64 -16 -241 -11 -249 6 -195 6 -444 0 -179 -5 -212 -3 -242 11
-49 23 -70 72 -56 125 16 58 55 80 143 80 l67 0 0 312 c0 171 -2 309 -4 307
-2 -2 -56 -123 -120 -269 l-115 -265 -92 -3 c-51 -1 -96 1 -102 7 -5 5 -63
125 -128 267 -66 142 -122 260 -124 263 -3 2 -5 -136 -5 -307 l0 -312 65 0
c40 0 78 -6 96 -16 77 -39 68 -165 -13 -193 -48 -17 -391 -14 -433 3 -38 16
-65 60 -65 106 0 41 45 86 93 95 l37 7 0 418 0 418 -30 7 c-16 4 -41 20 -55
37 l-25 30 -26 -31 c-18 -21 -38 -33 -65 -37 l-39 -7 0 -528 0 -529 -108 0
-109 0 -263 413 c-145 226 -270 421 -277 432 -11 16 -13 -33 -13 -303 l0 -322
66 0 c101 0 143 -32 144 -107 0 -33 -7 -50 -29 -75 l-29 -33 -194 -3 c-221 -4
-259 3 -288 51 -43 69 -7 147 73 162 l37 7 0 419 0 419 -45 0 c-24 0 -56 5
-70 12 -50 22 -71 104 -41 157 25 45 49 51 220 48 l160 -2 266 -417z m7971
408 c192 -41 322 -174 336 -346 10 -121 -39 -222 -149 -305 -32 -24 -63 -45
-70 -47 -8 -3 19 -39 67 -90 44 -47 105 -124 135 -171 l55 -86 45 0 c60 -2 91
-19 115 -63 18 -35 19 -40 5 -80 -22 -64 -57 -78 -196 -78 l-110 0 -17 36
c-55 115 -232 344 -318 413 l-52 41 -108 0 -109 0 0 -134 0 -134 79 -3 c90 -5
114 -19 132 -79 9 -29 8 -44 -5 -73 -26 -63 -52 -69 -313 -65 l-225 3 -29 33
c-43 47 -41 102 5 148 30 30 40 34 85 34 l51 0 0 420 0 420 -45 0 c-24 0 -56
5 -70 12 -71 32 -73 156 -4 194 35 20 618 19 710 0z m-2002 -73 c-18 -21 -36
-41 -39 -45 -13 -17 -396 -60 -695 -77 -93 -6 -291 -14 -440 -17 l-270 -7 -17
35 c-9 20 -14 39 -11 42 4 3 108 6 233 6 363 0 824 33 1110 79 63 11 126 19
139 20 24 1 24 0 -10 -36z m-2900 -51 c74 -17 75 -18 88 -58 17 -51 69 -114
117 -139 l36 -20 0 -282 c0 -179 -4 -284 -10 -288 -33 -21 -49 10 -209 405
-88 219 -161 402 -161 405 0 7 30 2 139 -23z m-909 -224 c7 -2 -15 -70 -62
-188 l-73 -184 -3 203 c-1 127 1 208 8 216 8 9 22 6 64 -15 30 -16 60 -30 66
-32z m7127 12 c23 -8 33 -21 42 -49 6 -21 22 -54 35 -74 l24 -35 -131 -4
c-122 -3 -135 -5 -178 -30 -86 -50 -136 -145 -126 -241 2 -29 8 -61 13 -72 7
-18 6 -18 -9 -7 -27 22 -40 110 -35 238 4 104 8 126 31 171 27 53 67 89 115
103 40 12 184 12 219 0z m-873 -488 l5 -53 -58 78 -59 78 44 48 c24 27 45 54
45 61 1 6 5 -27 10 -74 4 -47 10 -109 13 -138z"/>
<path d="M8207 6434 c-438 -79 -766 -410 -853 -862 -8 -41 -14 -102 -14 -137
l0 -64 53 -6 c28 -3 144 -5 256 -3 l205 3 12 75 c26 151 133 308 261 383 56
32 162 67 204 67 l29 0 0 280 0 280 -37 -1 c-21 0 -73 -7 -116 -15z"/>
<path d="M8400 6171 l0 -281 39 0 c59 0 160 -35 227 -78 123 -80 212 -213 242
-363 l15 -79 259 0 258 0 0 59 c0 106 -44 289 -100 416 -64 145 -218 324 -358
418 -149 100 -336 167 -506 183 l-76 7 0 -282z"/>
<path d="M8248 5811 c-153 -49 -269 -177 -313 -342 -8 -30 -15 -66 -15 -81 l0
-28 108 0 c59 0 116 3 127 6 12 3 30 25 43 54 25 54 67 91 125 110 l37 12 0
144 0 144 -27 -1 c-16 0 -54 -8 -85 -18z"/>
<path d="M8402 5685 l3 -147 40 -14 c48 -16 113 -82 121 -124 l7 -30 143 0
144 0 -6 43 c-9 58 -38 140 -69 193 -65 110 -211 209 -328 221 l-58 6 3 -148z"/>
<path d="M8662 5303 c-77 -3 -94 -7 -99 -21 -19 -54 -102 -122 -148 -122 -13
0 -15 -22 -15 -155 0 -178 -7 -169 105 -140 114 30 224 116 288 226 28 48 71
195 61 210 -3 5 -26 8 -52 7 -26 -1 -89 -4 -140 -5z"/>
<path d="M8910 5240 c-40 -236 -265 -448 -477 -450 l-33 0 0 -260 0 -260 39 0
c124 0 326 60 462 138 276 158 485 473 531 800 6 45 8 85 4 89 -4 4 -121 9
-260 11 l-254 4 -12 -72z"/>
<path d="M7340 5271 c0 -50 27 -175 59 -268 105 -314 344 -563 648 -673 82
-29 227 -60 284 -60 l29 0 0 260 0 260 -29 0 c-49 0 -155 38 -217 78 -125 81
-219 221 -246 365 l-13 67 -257 0 -258 0 0 -29z"/>
<path d="M7925 5258 c34 -205 199 -373 395 -404 l40 -7 0 155 0 154 -43 11
c-46 13 -127 88 -127 118 0 13 -21 15 -136 15 l-136 0 7 -42z"/>
<path d="M14298 4549 c-22 -12 -23 -42 -2 -59 23 -20 104 -30 147 -19 49 13
48 29 -2 29 -41 0 -71 20 -71 46 0 16 -46 19 -72 3z"/>
<path d="M2353 4520 c-13 -6 -23 -18 -23 -30 0 -14 -7 -20 -24 -20 -32 0 -86
-20 -86 -32 0 -12 115 -1 145 14 34 18 55 40 55 60 0 20 -29 23 -67 8z"/>
<path d="M10183 1505 c-302 -94 -393 -526 -162 -770 27 -28 75 -65 106 -81 51
-25 69 -29 143 -29 69 0 94 5 133 24 216 106 307 397 199 633 -83 179 -260
273 -419 223z m183 -160 c50 -29 94 -89 118 -158 18 -54 21 -163 6 -219 -15
-53 -69 -128 -116 -161 -60 -42 -111 -46 -178 -13 -87 42 -142 132 -153 250
-11 124 56 263 149 309 51 25 123 22 174 -8z"/>
<path d="M7430 1291 l0 -201 148 0 c214 0 291 29 327 125 37 96 -3 202 -92
246 -44 22 -63 24 -215 27 l-168 4 0 -201z m321 39 c12 -7 19 -21 19 -39 0
-37 -32 -51 -120 -51 l-70 0 0 50 0 50 76 0 c41 0 84 -5 95 -10z"/>
<path d="M6346 1401 c-4 -6 -43 -98 -86 -204 l-78 -192 84 -3 c46 -1 121 -1
167 0 l83 3 -81 204 c-45 112 -85 199 -89 192z"/>
<path d="M11350 1315 l0 -175 110 0 c121 0 195 12 255 42 128 64 151 170 55
252 -51 43 -117 56 -277 56 l-143 0 0 -175z m305 15 c8 -13 -34 -28 -101 -36
-53 -7 -54 -6 -54 20 0 26 1 26 74 26 41 0 78 -5 81 -10z"/>
<path d="M8855 828 c-84 -31 -165 -114 -186 -191 -41 -149 24 -291 161 -355
74 -35 191 -36 265 -3 108 48 166 132 173 252 4 66 1 84 -20 130 -57 123 -131
171 -273 176 -50 1 -103 -2 -120 -9z m189 -152 c104 -43 108 -205 6 -258 -66
-34 -159 -18 -210 37 -21 22 -25 36 -25 90 0 68 12 91 70 126 36 23 112 25
159 5z"/>
</g>
</svg>
